<?xml version="1.0" encoding="UTF-8" standalone="no"?>
<!-- Created with Inkscape (http://www.inkscape.org/) -->

<svg
   version="1.1"
   id="svg2"
   width="666.66669"
   height="564.29333"
   viewBox="0 0 666.66669 564.29333"
   sodipodi:docname="4534726.eps"
   xmlns:inkscape="http://www.inkscape.org/namespaces/inkscape"
   xmlns:sodipodi="http://sodipodi.sourceforge.net/DTD/sodipodi-0.dtd"
   xmlns="http://www.w3.org/2000/svg"
   xmlns:svg="http://www.w3.org/2000/svg">
  <defs
     id="defs6">
    <clipPath
       clipPathUnits="userSpaceOnUse"
       id="clipPath318">
      <path
         d="m 2127.44,1682.71 -0.03,0.03 c 9.91,83.57 19.75,166.45 29.05,244.99 -2.23,-18.85 -4.49,-37.91 -6.77,-57.21 v 0 c -0.38,-3.19 -0.75,-6.36 -1.14,-9.57 v 0 c -6.88,-58.13 -13.97,-118.02 -21.11,-178.24"
         id="path316" />
    </clipPath>
    <clipPath
       clipPathUnits="userSpaceOnUse"
       id="clipPath412">
      <path
         d="m 1382.75,1226.04 c -15.04,4.26 -30.91,6.53 -47.31,6.53 -16.41,0 -32.27,-2.27 -47.31,-6.52 5.08,21.41 24.34,37.34 47.31,37.34 22.97,0 42.22,-15.93 47.31,-37.35"
         id="path410" />
    </clipPath>
  </defs>
  <sodipodi:namedview
     id="namedview4"
     pagecolor="#ffffff"
     bordercolor="#000000"
     borderopacity="0.25"
     inkscape:showpageshadow="2"
     inkscape:pageopacity="0.0"
     inkscape:pagecheckerboard="0"
     inkscape:deskcolor="#d1d1d1" />
  <g
     id="g8"
     inkscape:groupmode="layer"
     inkscape:label="ink_ext_XXXXXX"
     transform="matrix(1.3333333,0,0,-1.3333333,0,564.29333)">
    <g
       id="g10"
       transform="scale(0.1)">
      <path
         d="m 0,449.129 h 5000 v 2.5 H 0 Z"
         style="fill:#e7e8e5;fill-opacity:1;fill-rule:nonzero;stroke:none"
         id="path12" />
      <path
         d="M 1116.67,365.238 H 785.445 v 2.5 h 331.225 v -2.5"
         style="fill:#e7e8e5;fill-opacity:1;fill-rule:nonzero;stroke:none"
         id="path14" />
      <path
         d="m 1333.33,293.109 h 301.672 v 2.5 H 1333.33 Z"
         style="fill:#e7e8e5;fill-opacity:1;fill-rule:nonzero;stroke:none"
         id="path16" />
      <path
         d="M 951.055,272.371 H 568.547 v 2.5 h 382.508 v -2.5"
         style="fill:#e7e8e5;fill-opacity:1;fill-rule:nonzero;stroke:none"
         id="path18" />
      <path
         d="M 4499.01,277.832 H 4340 v 2.5 h 159.01 v -2.5"
         style="fill:#e7e8e5;fill-opacity:1;fill-rule:nonzero;stroke:none"
         id="path20" />
      <path
         d="m 4307.92,277.832 h -393.2 v 2.5 h 393.2 v -2.5"
         style="fill:#e7e8e5;fill-opacity:1;fill-rule:nonzero;stroke:none"
         id="path22" />
      <path
         d="M 2803.33,366.488 H 2500 v 2.5 h 303.33 v -2.5"
         style="fill:#e7e8e5;fill-opacity:1;fill-rule:nonzero;stroke:none"
         id="path24" />
      <path
         d="m 2846.66,366.488 h 720.961 v 2.5 H 2846.66 Z"
         style="fill:#e7e8e5;fill-opacity:1;fill-rule:nonzero;stroke:none"
         id="path26" />
      <path
         d="m 439.152,3723.59 c -30.101,0 -54.582,-24.49 -54.582,-54.58 V 954.691 c 0,-30.089 24.481,-54.582 54.582,-54.582 H 2370.14 c 30.08,0 54.57,24.493 54.57,54.582 V 3669.01 c 0,30.09 -24.49,54.58 -54.57,54.58 H 439.152 M 2370.14,897.609 H 439.152 c -31.476,0 -57.082,25.61 -57.082,57.082 V 3669.01 c 0,31.47 25.606,57.08 57.082,57.08 H 2370.14 c 31.46,0 57.07,-25.61 57.07,-57.08 V 954.691 c 0,-31.472 -25.61,-57.082 -57.07,-57.082"
         style="fill:#e7e8e5;fill-opacity:1;fill-rule:nonzero;stroke:none"
         id="path28" />
      <path
         d="m 2602.12,3723.59 c -30.09,0 -54.57,-24.49 -54.57,-54.58 V 954.691 c 0,-30.089 24.48,-54.582 54.57,-54.582 h 1930.99 c 30.09,0 54.58,24.493 54.58,54.582 V 3669.01 c 0,30.09 -24.49,54.58 -54.58,54.58 H 2602.12 M 4533.11,897.609 H 2602.12 c -31.47,0 -57.07,25.61 -57.07,57.082 V 3669.01 c 0,31.47 25.6,57.08 57.07,57.08 h 1930.99 c 31.47,0 57.08,-25.61 57.08,-57.08 V 954.691 c 0,-31.472 -25.61,-57.082 -57.08,-57.082"
         style="fill:#e7e8e5;fill-opacity:1;fill-rule:nonzero;stroke:none"
         id="path30" />
      <path
         d="m 2392.45,2106.9 c 20.07,33.3 72.46,60.2 117.4,60.2 10.83,0 20.23,-1.58 28.02,-4.41 30.48,24.39 74.17,41.19 113.22,41.19 47.22,0 72.14,-24.57 62.52,-57.42 43.15,-2.12 62.09,-29.51 42.28,-63.01 -20.63,-34.87 -75.45,-63.14 -122.44,-63.14 h -270.74 c -33.31,0 -48.46,20.04 -33.84,44.76 11.3,19.11 37.08,35.41 63.58,41.83"
         style="fill:#ffffff;fill-opacity:1;fill-rule:nonzero;stroke:none"
         id="path32" />
      <path
         d="m 3548.17,451.629 h 308.578 v 2158.91 H 3548.17 Z"
         style="fill:#e2e2e0;fill-opacity:1;fill-rule:nonzero;stroke:none"
         id="path34" />
      <path
         d="m 3304.32,451.629 h 278.47 V 2177.15 L 3304.32,1756.38 V 451.629"
         style="fill:#e2e2e0;fill-opacity:1;fill-rule:nonzero;stroke:none"
         id="path36" />
      <path
         d="m 3951.96,451.629 h 308.578 v 1445.81 H 3951.96 Z"
         style="fill:#e2e2e0;fill-opacity:1;fill-rule:nonzero;stroke:none"
         id="path38" />
      <path
         d="m 3058.21,451.629 h 157.301 v 1626.04 H 3058.21 Z"
         style="fill:#e2e2e0;fill-opacity:1;fill-rule:nonzero;stroke:none"
         id="path40" />
      <path
         d="m 2833.92,451.629 h 157.31 V 1662.34 H 2833.92 V 451.629"
         style="fill:#e2e2e0;fill-opacity:1;fill-rule:nonzero;stroke:none"
         id="path42" />
      <path
         d="m 2715,451.629 h 157.31 V 1264.65 H 2715 V 451.629"
         style="fill:#e2e2e0;fill-opacity:1;fill-rule:nonzero;stroke:none"
         id="path44" />
      <path
         d="m 2062.14,451.629 h 157.3 v 813.021 h -157.3 V 451.629"
         style="fill:#e2e2e0;fill-opacity:1;fill-rule:nonzero;stroke:none"
         id="path46" />
      <path
         d="m 2212.67,451.629 h 157.3 v 556.381 h -157.3 V 451.629"
         style="fill:#e2e2e0;fill-opacity:1;fill-rule:nonzero;stroke:none"
         id="path48" />
      <path
         d="m 4303.81,451.629 h 157.301 v 813.02 H 4303.81 Z"
         style="fill:#e2e2e0;fill-opacity:1;fill-rule:nonzero;stroke:none"
         id="path50" />
      <path
         d="M 2946.82,451.629 H 4370.8 v 948.203 H 2946.82 Z"
         style="fill:#e2e2e0;fill-opacity:1;fill-rule:nonzero;stroke:none"
         id="path52" />
      <path
         d="m 2062.14,451.629 h 1423.98 v 380.07 H 2062.14 Z"
         style="fill:#e2e2e0;fill-opacity:1;fill-rule:nonzero;stroke:none"
         id="path54" />
      <path
         d="m 1431.25,451.629 h 491.281 v 1797.35 H 1431.25 Z"
         style="fill:#ededeb;fill-opacity:1;fill-rule:nonzero;stroke:none"
         id="path56" />
      <path
         d="M 2310.76,451.629 H 1867.41 V 1888.17 l 443.35,-350.3 V 451.629"
         style="fill:#ededeb;fill-opacity:1;fill-rule:nonzero;stroke:none"
         id="path58" />
      <path
         d="m 788.395,451.629 h 491.277 v 1353.72 H 788.395 Z"
         style="fill:#ededeb;fill-opacity:1;fill-rule:nonzero;stroke:none"
         id="path60" />
      <path
         d="m 2452.15,451.629 h 250.441 v 1353.72 H 2452.15 Z"
         style="fill:#ededeb;fill-opacity:1;fill-rule:nonzero;stroke:none"
         id="path62" />
      <path
         d="m 3059.66,451.629 h -250.43 v 903.321 h 250.43 V 451.629"
         style="fill:#ededeb;fill-opacity:1;fill-rule:nonzero;stroke:none"
         id="path64" />
      <path
         d="m 2998.55,451.629 h 250.438 v 676.859 H 2998.55 Z"
         style="fill:#ededeb;fill-opacity:1;fill-rule:nonzero;stroke:none"
         id="path66" />
      <path
         d="m 4037.96,451.629 h 250.438 v 676.859 H 4037.96 Z"
         style="fill:#ededeb;fill-opacity:1;fill-rule:nonzero;stroke:none"
         id="path68" />
      <path
         d="m 4048.75,451.629 h -250.43 v 463.203 h 250.43 V 451.629"
         style="fill:#ededeb;fill-opacity:1;fill-rule:nonzero;stroke:none"
         id="path70" />
      <path
         d="m 469.059,451.629 h 250.438 v 676.859 H 469.059 Z"
         style="fill:#ededeb;fill-opacity:1;fill-rule:nonzero;stroke:none"
         id="path72" />
      <path
         d="m 612.852,451.629 h 2267.08 v 1042.45 H 612.852 Z"
         style="fill:#ededeb;fill-opacity:1;fill-rule:nonzero;stroke:none"
         id="path74" />
      <path
         d="M 2021.32,451.629 H 4288.4 v 316.41 H 2021.32 Z"
         style="fill:#ededeb;fill-opacity:1;fill-rule:nonzero;stroke:none"
         id="path76" />
      <path
         d="m 4739.23,3447.58 c 0,134.33 -108.89,243.22 -243.22,243.22 -48.4,0 -93.46,-14.19 -131.35,-38.57 -69.2,113.82 -194.38,189.84 -337.32,189.84 -78.09,0 -150.82,-22.78 -212.08,-61.93 -30.92,25.15 -70.34,40.26 -113.3,40.26 -72.86,0 -135.46,-43.41 -163.7,-105.72 -9.26,0.75 -18.59,1.23 -28.04,1.23 -74.15,0 -142.82,-23.35 -199.19,-62.99 -44.02,84.63 -132.44,142.47 -234.43,142.47 -80.7,0 -152.89,-36.23 -201.35,-93.26 -52.12,43.54 -119.21,69.78 -192.45,69.78 -68.1,0 -130.89,-22.7 -181.27,-60.88 -11.11,155.79 -140.93,278.75 -299.56,278.75 -103.77,0 -195.25,-52.62 -249.22,-132.63 -21.14,4.72 -43.09,7.28 -65.65,7.28 -89.57,0 -169.93,-39.24 -224.97,-101.43 -50.79,29.15 -109.6,45.91 -172.35,45.91 -105.97,0 -200.78,-47.58 -264.4,-122.48 -68.45,57.18 -156.55,91.63 -252.72,91.63 -81.902,0 -157.972,-24.97 -221.023,-67.7 -31.774,28.29 -73.512,45.62 -119.395,45.62 -83.254,0 -153.086,-56.66 -173.554,-133.46 C 346.02,3601.28 260.77,3502.41 260.77,3383.57 c 0,-134.32 108.894,-243.21 243.218,-243.21 48.407,0 93.465,14.2 131.356,38.57 69.203,-113.82 194.379,-189.84 337.316,-189.84 78.09,0 150.82,22.78 212.08,61.93 30.92,-25.14 70.34,-40.26 113.3,-40.26 72.86,0 135.46,43.42 163.7,105.72 9.26,-0.75 18.59,-1.23 28.04,-1.23 74.15,0 142.82,23.35 199.19,62.99 44.02,-84.64 132.44,-142.48 234.43,-142.48 80.7,0 152.89,36.24 201.34,93.27 38.44,-32.1 85.03,-54.74 136.21,-64.44 45.25,-80.52 131.42,-134.96 230.36,-134.96 141.22,0 256.55,110.83 263.76,250.25 75.1,18.55 139.02,65.35 179.94,128.48 40.93,-26.06 89.48,-41.22 141.59,-41.22 34.25,0 66.94,6.59 96.97,18.46 37.38,-151.21 173.9,-263.35 336.65,-263.35 105.97,0 200.78,47.58 264.4,122.48 68.45,-57.19 156.55,-91.63 252.72,-91.63 81.9,0 157.97,24.97 221.02,67.7 31.78,-28.29 73.51,-45.62 119.4,-45.62 83.25,0 153.08,56.66 173.55,133.46 112.67,21.24 197.92,120.11 197.92,238.94"
         style="fill:#ededeb;fill-opacity:1;fill-rule:nonzero;stroke:none"
         id="path78" />
      <path
         d="M 4438.89,113.23 C 4438.89,50.6914 3570.83,0 2500,0 1429.18,0 561.109,50.6914 561.109,113.23 c 0,62.532 868.071,113.239 1938.891,113.239 1070.83,0 1938.89,-50.707 1938.89,-113.239"
         style="fill:#f3f2f1;fill-opacity:1;fill-rule:nonzero;stroke:none"
         id="path80" />
      <path
         d="m 300.66,1330.27 -1.09,0.14 c -2.261,0.6 -3.605,2.91 -3.007,5.17 19.968,75.33 37.957,145.31 55,213.93 0.476,1.91 2.195,3.22 4.089,3.22 0.344,0 0.692,-0.05 1.039,-0.14 2.266,-0.56 3.649,-2.85 3.082,-5.12 -17.043,-68.66 -35.046,-138.68 -55.027,-214.06 -0.504,-1.89 -2.219,-3.14 -4.086,-3.14"
         style="fill:#b8d2ef;fill-opacity:1;fill-rule:nonzero;stroke:none"
         id="path82" />
      <path
         d="m 400.648,2115.08 -0.941,0.11 c -2.281,0.51 -3.707,2.78 -3.187,5.06 13.007,57.35 27.996,117.37 45.824,183.48 0.508,1.89 2.215,3.12 4.086,3.12 0.367,0 0.734,-0.04 1.105,-0.14 2.254,-0.61 3.586,-2.93 2.981,-5.19 -17.801,-66 -32.762,-125.9 -45.746,-183.14 -0.446,-1.97 -2.184,-3.3 -4.122,-3.3"
         style="fill:#b8d2ef;fill-opacity:1;fill-rule:nonzero;stroke:none"
         id="path84" />
      <path
         d="m 305.266,2519.47 -1.176,0.17 c -2.242,0.65 -3.539,2.99 -2.895,5.24 7.555,26.18 15.203,52.32 22.907,78.45 0.543,1.84 2.218,3.04 4.054,3.04 0.395,0 0.797,-0.06 1.199,-0.18 2.243,-0.66 3.524,-3.01 2.864,-5.25 -7.699,-26.12 -15.344,-52.25 -22.887,-78.41 -0.539,-1.85 -2.227,-3.06 -4.066,-3.06"
         style="fill:#b8d2ef;fill-opacity:1;fill-rule:nonzero;stroke:none"
         id="path86" />
      <path
         d="m 274.406,2932.04 -1.203,0.17 c -2.238,0.67 -3.519,3.02 -2.855,5.26 24.961,84.24 50.722,172.27 74.535,262.14 2.355,-2.04 4.734,-4.02 7.172,-5.97 -23.555,-88.65 -48.961,-175.46 -73.594,-258.57 -0.547,-1.84 -2.231,-3.03 -4.055,-3.03"
         style="fill:#b8d2ef;fill-opacity:1;fill-rule:nonzero;stroke:none"
         id="path88" />
      <path
         d="m 352.055,3193.64 c -2.438,1.95 -4.817,3.93 -7.172,5.97 11.535,43.54 22.609,87.52 32.914,131.7 0.453,1.94 2.191,3.28 4.101,3.28 0.325,0 0.653,-0.04 0.985,-0.12 2.273,-0.53 3.687,-2.81 3.156,-5.08 -10.625,-45.56 -22.066,-90.89 -33.984,-135.75"
         style="fill:#adc7eb;fill-opacity:1;fill-rule:nonzero;stroke:none"
         id="path90" />
      <path
         d="m 757.016,3210.91 -1.102,0.15 c -2.258,0.6 -3.594,2.92 -2.988,5.18 l 16.23,60.53 c 0.504,1.89 2.227,3.14 4.086,3.14 0.363,0 0.731,-0.05 1.094,-0.15 2.262,-0.6 3.598,-2.92 2.992,-5.18 l -16.23,-60.54 c -0.508,-1.89 -2.215,-3.13 -4.082,-3.13"
         style="fill:#adc7eb;fill-opacity:1;fill-rule:nonzero;stroke:none"
         id="path92" />
      <path
         d="m 591.824,3559.39 -1.094,0.15 c -2.257,0.6 -3.601,2.92 -2.996,5.18 l 25.082,94.2 c 0.512,1.91 2.235,3.13 4.122,3.13 0.351,0 0.707,-0.04 1.058,-0.12 2.258,-0.61 3.606,-2.93 3.004,-5.18 l -25.094,-94.21 c -0.5,-1.9 -2.211,-3.15 -4.082,-3.15"
         style="fill:#adc7eb;fill-opacity:1;fill-rule:nonzero;stroke:none"
         id="path94" />
      <path
         d="m 693.93,3940.21 -1.141,0.16 c -2.254,0.63 -3.566,2.97 -2.937,5.22 16.945,60.52 33.699,121.1 50.316,181.71 0.516,1.88 2.203,3.11 4.074,3.11 0.371,0 0.746,-0.05 1.125,-0.14 2.254,-0.63 3.578,-2.95 2.961,-5.2 -16.625,-60.64 -33.379,-121.23 -50.32,-181.77 -0.528,-1.86 -2.227,-3.09 -4.078,-3.09"
         style="fill:#b8d2ef;fill-opacity:1;fill-rule:nonzero;stroke:none"
         id="path96" />
      <path
         d="m 411.902,198.09 -1.105,0.14 c -2.258,0.61 -3.59,2.942 -2.984,5.192 13.91,51.578 27.875,103.129 41.89,154.68 0.504,1.886 2.219,3.128 4.074,3.128 0.371,0 0.743,-0.05 1.114,-0.148 2.257,-0.613 3.589,-2.941 2.976,-5.191 -14.004,-51.551 -27.969,-103.102 -41.879,-154.672 -0.508,-1.891 -2.218,-3.129 -4.086,-3.129"
         style="fill:#b8d2ef;fill-opacity:1;fill-rule:nonzero;stroke:none"
         id="path98" />
      <path
         d="m 326.254,718.809 -1.121,0.152 c -2.254,0.617 -3.582,2.949 -2.965,5.199 19.566,71.59 39.191,143.16 58.832,214.731 0.371,1.347 1.352,2.359 2.559,2.828 0.914,-3.918 2.234,-7.68 3.91,-11.25 -19.078,-69.5 -38.137,-139.02 -57.137,-208.539 -0.512,-1.879 -2.219,-3.121 -4.078,-3.121 m 62.266,215.492 c -0.989,2.449 -1.805,4.98 -2.43,7.59 0.035,-0.012 0.074,-0.02 0.109,-0.032 2.258,-0.621 3.586,-2.949 2.965,-5.199 -0.215,-0.789 -0.43,-1.57 -0.644,-2.359"
         style="fill:#b8d2ef;fill-opacity:1;fill-rule:nonzero;stroke:none"
         id="path100" />
      <path
         d="m 387.469,930.469 c -1.676,3.57 -2.996,7.332 -3.91,11.25 0.48,0.191 0.996,0.293 1.527,0.293 0.328,0 0.668,-0.043 1.004,-0.121 0.625,-2.61 1.441,-5.141 2.43,-7.59 -0.352,-1.281 -0.7,-2.551 -1.051,-3.832"
         style="fill:#a8c3e9;fill-opacity:1;fill-rule:nonzero;stroke:none"
         id="path102" />
      <path
         d="m 591.563,856.059 -1.129,0.152 c -2.25,0.617 -3.579,2.949 -2.957,5.211 l 25.375,92.367 v -31.961 l -17.211,-62.656 c -0.52,-1.871 -2.223,-3.113 -4.078,-3.113"
         style="fill:#adc7eb;fill-opacity:1;fill-rule:nonzero;stroke:none"
         id="path104" />
      <path
         d="m 612.852,921.828 v 31.961 l 18.765,68.311 c 0.52,1.88 2.246,3.12 4.094,3.12 0.363,0 0.738,-0.05 1.105,-0.15 2.254,-0.63 3.582,-2.96 2.965,-5.21 l -26.929,-98.032"
         style="fill:#adc7eb;fill-opacity:1;fill-rule:nonzero;stroke:none"
         id="path106" />
      <path
         d="m 1053.03,1036.62 -1.12,0.15 c -2.25,0.61 -3.58,2.94 -2.96,5.2 l 16.43,60.12 c 0.5,1.88 2.23,3.12 4.08,3.12 0.37,0 0.74,-0.05 1.11,-0.15 2.26,-0.62 3.59,-2.95 2.97,-5.2 l -16.43,-60.13 c -0.51,-1.88 -2.22,-3.11 -4.08,-3.11"
         style="fill:#adc7eb;fill-opacity:1;fill-rule:nonzero;stroke:none"
         id="path108" />
      <path
         d="m 936.328,1494.08 h -8.769 c 16.66,61.66 33.246,123.35 49.73,185.06 0.5,1.89 2.234,3.14 4.086,3.14 0.363,0 0.73,-0.05 1.098,-0.15 2.254,-0.6 3.597,-2.92 2.992,-5.18 -16.289,-60.98 -32.676,-121.94 -49.137,-182.87"
         style="fill:#adc7eb;fill-opacity:1;fill-rule:nonzero;stroke:none"
         id="path110" />
      <path
         d="m 927.047,1471.72 -1.109,0.15 c -2.258,0.61 -3.594,2.93 -2.985,5.19 1.535,5.67 3.07,11.35 4.606,17.02 h 8.769 c -1.734,-6.41 -3.465,-12.82 -5.199,-19.23 -0.516,-1.89 -2.223,-3.13 -4.082,-3.13"
         style="fill:#adc7eb;fill-opacity:1;fill-rule:nonzero;stroke:none"
         id="path112" />
      <path
         d="m 954.215,2039.46 -1.078,0.14 c -2.262,0.59 -3.614,2.91 -3.02,5.17 8.867,33.73 17.692,67.46 26.477,101.21 0.5,1.9 2.226,3.17 4.094,3.17 0.355,0 0.71,-0.04 1.066,-0.14 2.266,-0.59 3.617,-2.9 3.031,-5.16 -8.785,-33.76 -17.617,-67.5 -26.484,-101.23 -0.496,-1.9 -2.211,-3.16 -4.086,-3.16"
         style="fill:#b8d2ef;fill-opacity:1;fill-rule:nonzero;stroke:none"
         id="path114" />
      <path
         d="m 621.52,1895.6 -1.149,0.16 c -2.25,0.63 -3.558,2.97 -2.926,5.22 l 28.36,100.73 c 0.523,1.87 2.199,3.08 4.062,3.08 0.383,0 0.77,-0.05 1.156,-0.16 2.247,-0.62 3.563,-2.96 2.926,-5.21 L 625.59,1898.68 c -0.527,-1.86 -2.223,-3.08 -4.07,-3.08"
         style="fill:#b8d2ef;fill-opacity:1;fill-rule:nonzero;stroke:none"
         id="path116" />
      <path
         d="m 1180.34,2485.05 -1.24,0.19 c -2.24,0.68 -3.49,3.05 -2.81,5.28 4.73,15.53 9.4,31.06 14,46.62 0.54,1.84 2.23,3.03 4.06,3.03 0.4,0 0.8,-0.06 1.2,-0.17 2.24,-0.67 3.52,-3.02 2.86,-5.26 -4.62,-15.58 -9.28,-31.15 -14.02,-46.69 -0.56,-1.82 -2.24,-3 -4.05,-3"
         style="fill:#b8d2ef;fill-opacity:1;fill-rule:nonzero;stroke:none"
         id="path118" />
      <path
         d="m 1135.59,2664.79 -1.13,0.15 c -2.25,0.62 -3.58,2.95 -2.96,5.2 5.38,19.52 10.69,39.07 15.95,58.62 0.5,1.89 2.23,3.14 4.09,3.14 0.36,0 0.73,-0.05 1.09,-0.15 2.26,-0.61 3.6,-2.93 2.99,-5.19 -5.26,-19.57 -10.57,-39.12 -15.95,-58.66 -0.52,-1.88 -2.22,-3.11 -4.08,-3.11"
         style="fill:#b8d2ef;fill-opacity:1;fill-rule:nonzero;stroke:none"
         id="path120" />
      <path
         d="m 1284.26,2860.59 -1.06,0.13 c -2.26,0.58 -3.62,2.89 -3.04,5.15 11.42,44.37 22.7,88.79 33.97,133.2 0.48,1.92 2.24,3.19 4.12,3.19 0.34,0 0.68,-0.04 1.02,-0.13 2.26,-0.58 3.64,-2.88 3.06,-5.14 -11.27,-44.42 -22.54,-88.84 -33.98,-133.22 -0.48,-1.91 -2.2,-3.18 -4.09,-3.18"
         style="fill:#b8d2ef;fill-opacity:1;fill-rule:nonzero;stroke:none"
         id="path122" />
      <path
         d="m 1061.25,3047.38 -1.06,0.14 c -2.26,0.58 -3.63,2.88 -3.04,5.15 6.27,24.41 12.58,48.82 18.95,73.21 0.5,1.91 2.23,3.16 4.11,3.16 0.35,0 0.7,-0.04 1.05,-0.13 2.27,-0.59 3.62,-2.91 3.03,-5.17 -6.37,-24.38 -12.68,-48.78 -18.95,-73.18 -0.49,-1.91 -2.21,-3.18 -4.09,-3.18"
         style="fill:#adc7eb;fill-opacity:1;fill-rule:nonzero;stroke:none"
         id="path124" />
      <path
         d="m 1397.61,3318.58 -1.13,0.15 c -2.25,0.63 -3.57,2.95 -2.95,5.21 19.13,69.34 37.36,131.98 55.72,191.52 0.56,1.81 2.22,2.98 4.04,2.98 0.41,0 0.83,-0.06 1.25,-0.19 2.24,-0.69 3.49,-3.05 2.8,-5.29 -18.34,-59.45 -36.54,-122.02 -55.65,-191.27 -0.51,-1.88 -2.22,-3.11 -4.08,-3.11"
         style="fill:#adc7eb;fill-opacity:1;fill-rule:nonzero;stroke:none"
         id="path126" />
      <path
         d="m 1388.87,3793.98 c -0.38,0.83 -0.51,1.79 -0.28,2.74 20.18,86.6 42.23,173.03 65.53,256.87 0.52,1.87 2.2,3.11 4.06,3.11 0.38,0 0.77,-0.06 1.15,-0.16 2.25,-0.63 3.57,-2.96 2.95,-5.21 -23.13,-83.22 -45.02,-168.98 -65.08,-254.93 -2.78,-0.77 -5.57,-1.58 -8.33,-2.42"
         style="fill:#b8d2ef;fill-opacity:1;fill-rule:nonzero;stroke:none"
         id="path128" />
      <path
         d="m 1392.72,3791.53 -0.97,0.11 c -1.32,0.31 -2.35,1.2 -2.88,2.34 2.76,0.84 5.55,1.65 8.33,2.42 -0.12,-0.53 -0.25,-1.06 -0.37,-1.6 -0.45,-1.95 -2.19,-3.27 -4.11,-3.27"
         style="fill:#adc7eb;fill-opacity:1;fill-rule:nonzero;stroke:none"
         id="path130" />
      <path
         d="m 860.18,620.801 -0.848,0.078 c -2.289,0.473 -3.769,2.711 -3.301,5 6.328,31.07 14.793,64.301 25.887,101.582 0.547,1.84 2.23,3.027 4.051,3.027 0.402,0 0.808,-0.058 1.215,-0.179 2.242,-0.668 3.515,-3.02 2.851,-5.27 C 879.012,688 870.602,655.012 864.32,624.191 c -0.406,-2.011 -2.172,-3.39 -4.14,-3.39"
         style="fill:#adc7eb;fill-opacity:1;fill-rule:nonzero;stroke:none"
         id="path132" />
      <path
         d="m 1616.13,1075 -1.1,0.14 c -2.25,0.6 -3.59,2.92 -2.99,5.18 l 28.78,107.77 c 0.5,1.89 2.2,3.14 4.07,3.14 0.37,0 0.74,-0.04 1.11,-0.14 2.25,-0.61 3.59,-2.92 2.99,-5.19 l -28.78,-107.76 c -0.5,-1.89 -2.21,-3.14 -4.08,-3.14"
         style="fill:#adc7eb;fill-opacity:1;fill-rule:nonzero;stroke:none"
         id="path134" />
      <path
         d="m 1507.4,1494.08 h -8.61 c 0,0.36 0.05,0.73 0.15,1.1 13.21,49.36 26.44,98.71 39.69,148.07 0.51,1.9 2.22,3.13 4.09,3.13 0.36,0 0.73,-0.05 1.09,-0.14 2.26,-0.61 3.6,-2.93 2.99,-5.19 -13.15,-48.99 -26.28,-97.97 -39.4,-146.97"
         style="fill:#adc7eb;fill-opacity:1;fill-rule:nonzero;stroke:none"
         id="path136" />
      <path
         d="m 1503.03,1489.85 -1.1,0.15 c -1.9,0.5 -3.14,2.21 -3.14,4.08 h 8.61 c -0.1,-0.36 -0.19,-0.73 -0.29,-1.09 -0.5,-1.89 -2.22,-3.14 -4.08,-3.14"
         style="fill:#adc7eb;fill-opacity:1;fill-rule:nonzero;stroke:none"
         id="path138" />
      <path
         d="m 1349.16,2022.64 -1.11,0.15 c -2.25,0.61 -3.59,2.93 -2.98,5.19 l 9.09,33.63 c 0.51,1.89 2.21,3.13 4.09,3.13 0.36,0 0.73,-0.05 1.1,-0.14 2.25,-0.61 3.59,-2.94 2.98,-5.19 l -9.09,-33.64 c -0.51,-1.88 -2.22,-3.13 -4.08,-3.13"
         style="fill:#b8d2ef;fill-opacity:1;fill-rule:nonzero;stroke:none"
         id="path140" />
      <path
         d="m 1734.8,2248.98 h -8.78 l 8.81,32 c 0.52,1.88 2.22,3.11 4.09,3.11 0.37,0 0.74,-0.05 1.12,-0.15 2.25,-0.63 3.58,-2.96 2.96,-5.21 l -8.2,-29.75"
         style="fill:#b8d2ef;fill-opacity:1;fill-rule:nonzero;stroke:none"
         id="path142" />
      <path
         d="m 1727.79,2235.25 -1.13,0.15 c -2.25,0.62 -3.57,2.95 -2.95,5.2 l 2.31,8.38 h 8.78 l -2.93,-10.62 c -0.52,-1.88 -2.22,-3.11 -4.08,-3.11"
         style="fill:#adc7eb;fill-opacity:1;fill-rule:nonzero;stroke:none"
         id="path144" />
      <path
         d="m 851.352,2587.51 -1.141,0.16 c -2.25,0.63 -3.566,2.97 -2.938,5.22 14.426,51.53 28.911,103.05 43.454,154.56 0.527,1.86 2.222,3.07 4.078,3.07 0.379,0 0.765,-0.05 1.148,-0.15 2.246,-0.64 3.555,-2.98 2.918,-5.23 -14.547,-51.49 -29.027,-103.01 -43.441,-154.54 -0.524,-1.86 -2.227,-3.09 -4.078,-3.09"
         style="fill:#b8d2ef;fill-opacity:1;fill-rule:nonzero;stroke:none"
         id="path146" />
      <path
         d="m 1815.18,3228.97 -1.12,0.15 c -2.25,0.62 -3.58,2.94 -2.97,5.2 l 58.83,215.52 c 0.51,1.88 2.22,3.12 4.08,3.12 0.37,0 0.74,-0.05 1.11,-0.16 2.26,-0.61 3.59,-2.94 2.97,-5.19 l -58.82,-215.52 c -0.51,-1.88 -2.22,-3.12 -4.08,-3.12"
         style="fill:#adc7eb;fill-opacity:1;fill-rule:nonzero;stroke:none"
         id="path148" />
      <path
         d="m 2006.66,3440.72 -1.12,0.16 c -2.26,0.61 -3.59,2.93 -2.97,5.19 l 25.73,94.29 c 0.51,1.88 2.2,3.12 4.07,3.12 0.37,0 0.75,-0.05 1.13,-0.16 2.25,-0.61 3.58,-2.93 2.96,-5.19 l -25.73,-94.29 c -0.51,-1.88 -2.21,-3.12 -4.07,-3.12"
         style="fill:#adc7eb;fill-opacity:1;fill-rule:nonzero;stroke:none"
         id="path150" />
      <path
         d="m 2130.36,3785.24 -1.24,0.19 c -2.24,0.68 -3.49,3.04 -2.81,5.28 8.35,27.34 14.64,55.54 20.72,82.81 7.02,31.49 14.28,64.05 24.79,95.78 0.6,1.77 2.24,2.89 4.03,2.89 0.44,0 0.88,-0.06 1.32,-0.21 2.22,-0.73 3.42,-3.12 2.69,-5.35 -10.38,-31.32 -17.59,-63.67 -24.57,-94.95 -6.12,-27.43 -12.44,-55.8 -20.89,-83.44 -0.55,-1.83 -2.23,-3 -4.04,-3"
         style="fill:#adc7eb;fill-opacity:1;fill-rule:nonzero;stroke:none"
         id="path152" />
      <path
         d="m 1613.39,448.18 -1.17,0.172 c -0.57,0.16 -1.07,0.429 -1.5,0.777 h 5.35 c -0.75,-0.609 -1.69,-0.949 -2.68,-0.949"
         style="fill:#b8d2ef;fill-opacity:1;fill-rule:nonzero;stroke:none"
         id="path154" />
      <path
         d="m 1616.07,449.129 h -5.35 c -0.78,0.633 -1.3,1.519 -1.49,2.5 h 8.35 c -0.04,-0.129 -0.08,-0.27 -0.12,-0.399 -0.25,-0.859 -0.75,-1.582 -1.39,-2.101"
         style="fill:#a8c3e9;fill-opacity:1;fill-rule:nonzero;stroke:none"
         id="path156" />
      <path
         d="m 1617.58,451.629 h -8.35 c -0.11,0.633 -0.09,1.301 0.1,1.953 5.72,19.777 11.43,39.547 17.12,59.328 0.53,1.852 2.2,3.051 4.06,3.051 0.39,0 0.78,-0.051 1.18,-0.16 2.25,-0.641 3.54,-2.992 2.89,-5.242 -5.65,-19.649 -11.31,-39.289 -17,-58.93"
         style="fill:#adc7eb;fill-opacity:1;fill-rule:nonzero;stroke:none"
         id="path158" />
      <path
         d="m 2548.85,4103.43 -1.12,0.15 c -2.26,0.61 -3.58,2.94 -2.97,5.19 l 32.85,120.34 c 0.51,1.89 2.23,3.12 4.08,3.12 0.37,0 0.74,-0.05 1.11,-0.15 2.26,-0.62 3.59,-2.94 2.97,-5.19 l -32.85,-120.35 c -0.51,-1.88 -2.21,-3.11 -4.07,-3.11"
         style="fill:#b8d2ef;fill-opacity:1;fill-rule:nonzero;stroke:none"
         id="path160" />
      <path
         d="m 2925.23,3933.71 -1.13,0.15 c -2.25,0.62 -3.57,2.95 -2.95,5.21 11.97,43.35 23.39,87.64 34.44,130.47 5.52,21.41 11.05,42.83 16.66,64.22 0.5,1.89 2.18,3.17 4.06,3.17 0.36,0 0.73,-0.05 1.1,-0.15 2.26,-0.59 3.62,-2.91 3.02,-5.17 -5.61,-21.38 -11.13,-42.78 -16.65,-64.19 -11.05,-42.86 -22.49,-87.19 -34.47,-130.61 -0.52,-1.87 -2.22,-3.1 -4.08,-3.1"
         style="fill:#b8d2ef;fill-opacity:1;fill-rule:nonzero;stroke:none"
         id="path162" />
      <path
         d="m 3313.09,1583.01 -1.49,0.28 c -2.19,0.82 -3.3,3.26 -2.47,5.45 27.06,71.91 46.07,147.63 64.46,220.87 5.4,21.49 10.8,43 16.4,64.44 0.5,1.92 2.24,3.16 4.11,3.16 0.35,0 0.7,-0.04 1.05,-0.13 2.26,-0.59 3.62,-2.9 3.03,-5.17 -5.6,-21.42 -10.99,-42.89 -16.38,-64.37 -18.45,-73.46 -37.52,-149.42 -64.75,-221.78 -0.64,-1.7 -2.26,-2.75 -3.96,-2.75"
         style="fill:#a5c0e8;fill-opacity:1;fill-rule:nonzero;stroke:none"
         id="path164" />
      <path
         d="m 3631.19,2058.22 -1.12,0.16 c -2.26,0.61 -3.59,2.93 -2.97,5.19 l 81.07,297.02 c 0.51,1.89 2.21,3.12 4.07,3.12 0.37,0 0.75,-0.05 1.12,-0.15 2.26,-0.62 3.59,-2.94 2.97,-5.2 l -81.07,-297.02 c -0.51,-1.88 -2.21,-3.12 -4.07,-3.12"
         style="fill:#a5c0e8;fill-opacity:1;fill-rule:nonzero;stroke:none"
         id="path166" />
      <path
         d="m 3633.6,3269.52 -1.11,0.15 c -2.26,0.62 -3.59,2.94 -2.97,5.2 l 66.94,245.27 c 0.52,1.88 2.23,3.12 4.08,3.12 0.37,0 0.75,-0.05 1.12,-0.15 2.26,-0.62 3.58,-2.94 2.97,-5.2 l -66.95,-245.27 c -0.51,-1.88 -2.22,-3.12 -4.08,-3.12"
         style="fill:#adc7eb;fill-opacity:1;fill-rule:nonzero;stroke:none"
         id="path168" />
      <path
         d="m 3605.35,3792.19 c 19.93,73.2 40.3,146.59 59.68,216.22 0.52,1.87 2.22,3.11 4.07,3.11 0.38,0 0.76,-0.06 1.14,-0.16 2.25,-0.63 3.57,-2.96 2.94,-5.21 -18.62,-66.96 -38.17,-137.37 -57.36,-207.75 -3.56,-1.95 -7.05,-4.02 -10.47,-6.21"
         style="fill:#b8d2ef;fill-opacity:1;fill-rule:nonzero;stroke:none"
         id="path170" />
      <path
         d="m 3598.2,3745.39 -1.1,0.15 c -2.26,0.61 -3.6,2.93 -2.99,5.19 3.73,13.8 7.48,27.63 11.24,41.46 3.42,2.19 6.91,4.26 10.47,6.21 -4.54,-16.64 -9.06,-33.29 -13.54,-49.88 -0.51,-1.88 -2.21,-3.13 -4.08,-3.13"
         style="fill:#adc7eb;fill-opacity:1;fill-rule:nonzero;stroke:none"
         id="path172" />
      <path
         d="m 4332.19,359.551 -1.16,0.16 c -2.25,0.641 -3.55,2.98 -2.91,5.23 7.97,28.047 15.89,56.11 23.77,84.188 h 8.79 c -8.09,-28.848 -16.23,-57.688 -24.42,-86.508 -0.53,-1.859 -2.23,-3.07 -4.07,-3.07 m 29.19,92.078 h -8.79 c 0,0 0,0 0.01,0 h 8.78 v 0"
         style="fill:#b8d2ef;fill-opacity:1;fill-rule:nonzero;stroke:none"
         id="path174" />
      <path
         d="m 4360.68,449.129 h -8.79 c 0.24,0.832 0.47,1.66 0.7,2.5 h 8.79 c -0.23,-0.84 -0.46,-1.668 -0.7,-2.5"
         style="fill:#a8c3e9;fill-opacity:1;fill-rule:nonzero;stroke:none"
         id="path176" />
      <path
         d="m 4361.38,451.629 h -8.78 c 2.95,10.531 5.89,21.051 8.83,31.582 0.52,1.871 2.22,3.09 4.08,3.09 0.37,0 0.75,-0.051 1.13,-0.153 2.26,-0.628 3.57,-2.957 2.95,-5.218 -2.73,-9.758 -5.47,-19.532 -8.21,-29.301"
         style="fill:#a5c0e8;fill-opacity:1;fill-rule:nonzero;stroke:none"
         id="path178" />
      <path
         d="m 4125.43,816.48 -1.1,0.149 c -2.26,0.609 -3.6,2.93 -2.99,5.18 19.31,71.742 38.43,143.523 57.45,215.331 0.5,1.89 2.23,3.15 4.09,3.15 0.36,0 0.72,-0.05 1.08,-0.15 2.27,-0.6 3.61,-2.91 3.01,-5.17 -19.02,-71.822 -38.15,-143.611 -57.46,-215.349 -0.51,-1.891 -2.21,-3.141 -4.08,-3.141"
         style="fill:#adc7eb;fill-opacity:1;fill-rule:nonzero;stroke:none"
         id="path180" />
      <path
         d="m 3403.56,331.992 -1.08,0.149 c -2.26,0.589 -3.61,2.898 -3.01,5.16 l 7.66,29.187 h 8.75 l -8.23,-31.34 c -0.5,-1.898 -2.21,-3.156 -4.09,-3.156 m 12.98,36.996 h -8.75 l 21.05,80.141 h 8.75 l -21.05,-80.141"
         style="fill:#b8d2ef;fill-opacity:1;fill-rule:nonzero;stroke:none"
         id="path182" />
      <path
         d="m 3437.59,449.129 h -8.75 l 0.66,2.5 h 8.74 l -0.65,-2.5"
         style="fill:#a8c3e9;fill-opacity:1;fill-rule:nonzero;stroke:none"
         id="path184" />
      <path
         d="m 3415.88,366.488 h -8.75 l 0.66,2.5 h 8.75 l -0.66,-2.5"
         style="fill:#a8c3e9;fill-opacity:1;fill-rule:nonzero;stroke:none"
         id="path186" />
      <path
         d="m 3438.24,451.629 h -8.74 l 8.27,31.519 c 0.5,1.891 2.2,3.161 4.07,3.161 0.36,0 0.73,-0.047 1.1,-0.149 2.26,-0.59 3.61,-2.898 3.02,-5.16 l -7.72,-29.371"
         style="fill:#adc7eb;fill-opacity:1;fill-rule:nonzero;stroke:none"
         id="path188" />
      <path
         d="m 3187.64,963.762 -1.09,0.136 c -2.26,0.602 -3.61,2.911 -3.01,5.172 12.82,48.59 25.68,97.17 38.6,145.73 0.51,1.91 2.23,3.13 4.12,3.13 0.35,0 0.7,-0.04 1.06,-0.13 2.26,-0.6 3.6,-2.92 3,-5.18 -12.91,-48.55 -25.77,-97.13 -38.6,-145.698 -0.5,-1.902 -2.21,-3.16 -4.08,-3.16"
         style="fill:#adc7eb;fill-opacity:1;fill-rule:nonzero;stroke:none"
         id="path190" />
      <path
         d="m 3683.39,768.039 h -8.77 c 29.59,109.82 56.92,209.512 83.35,304.011 0.52,1.87 2.23,3.1 4.07,3.1 0.38,0 0.76,-0.05 1.14,-0.16 2.25,-0.63 3.57,-2.96 2.94,-5.21 -26.24,-93.85 -53.38,-192.819 -82.73,-301.741"
         style="fill:#a5c0e8;fill-opacity:1;fill-rule:nonzero;stroke:none"
         id="path192" />
      <path
         d="m 3671.72,736.738 -1.1,0.153 c -2.26,0.597 -3.59,2.929 -2.99,5.179 2.35,8.719 4.68,17.379 6.99,25.969 h 8.77 c -2.51,-9.309 -5.04,-18.699 -7.58,-28.168 -0.51,-1.891 -2.22,-3.133 -4.09,-3.133"
         style="fill:#adc7eb;fill-opacity:1;fill-rule:nonzero;stroke:none"
         id="path194" />
      <path
         d="m 3695.39,1399.83 h -8.51 c -0.05,0.5 0,1.02 0.15,1.53 17.29,60.26 34.65,119.75 51.58,176.84 0.54,1.84 2.23,3.03 4.06,3.03 0.4,0 0.8,-0.06 1.2,-0.17 2.24,-0.67 3.52,-3.03 2.85,-5.26 -16.84,-56.81 -34.11,-116.02 -51.33,-175.97"
         style="fill:#a5c0e8;fill-opacity:1;fill-rule:nonzero;stroke:none"
         id="path196" />
      <path
         d="m 3691.09,1395.96 -1.16,0.16 c -1.74,0.5 -2.91,2.01 -3.05,3.71 h 8.51 c -0.08,-0.27 -0.15,-0.54 -0.23,-0.8 -0.53,-1.86 -2.23,-3.07 -4.07,-3.07"
         style="fill:#a5c0e8;fill-opacity:1;fill-rule:nonzero;stroke:none"
         id="path198" />
      <path
         d="m 3910.97,1696.01 -0.98,0.11 c -2.28,0.54 -3.68,2.82 -3.14,5.1 13.97,58.97 29.27,117.94 45.11,176.03 v -32.45 c -12.9,-48.19 -25.34,-96.86 -36.88,-145.54 -0.46,-1.94 -2.19,-3.25 -4.11,-3.25 m 55.3,201.43 h -8.78 c 16.16,58.6 32.77,116.17 49.03,171.81 0.55,1.84 2.23,3.05 4.06,3.05 0.4,0 0.8,-0.05 1.19,-0.17 2.25,-0.65 3.53,-3.01 2.88,-5.25 -16.05,-54.89 -32.43,-111.67 -48.38,-169.44"
         style="fill:#b8d2ef;fill-opacity:1;fill-rule:nonzero;stroke:none"
         id="path200" />
      <path
         d="m 3951.96,1844.8 v 32.45 c 1.83,6.74 3.68,13.47 5.53,20.19 h 8.78 c -4.81,-17.46 -9.6,-35.02 -14.31,-52.64"
         style="fill:#a5c0e8;fill-opacity:1;fill-rule:nonzero;stroke:none"
         id="path202" />
      <path
         d="m 4248.99,2173.78 -1.19,0.17 c -2.25,0.66 -3.53,3.01 -2.87,5.25 13.6,46.3 27.14,92.63 40.37,139.04 0.53,1.86 2.22,3.06 4.08,3.06 0.38,0 0.77,-0.05 1.15,-0.15 2.25,-0.65 3.55,-2.98 2.91,-5.24 -13.23,-46.43 -26.78,-92.77 -40.39,-139.09 -0.54,-1.85 -2.23,-3.04 -4.06,-3.04"
         style="fill:#b8d2ef;fill-opacity:1;fill-rule:nonzero;stroke:none"
         id="path204" />
      <path
         d="m 4331.44,2465.76 -1.08,0.14 c -2.26,0.6 -3.62,2.91 -3.02,5.17 13.04,49.65 24.43,95.58 34.81,140.43 0.44,1.94 2.19,3.29 4.08,3.29 0.33,0 0.66,-0.04 0.99,-0.13 2.28,-0.52 3.7,-2.79 3.17,-5.07 -10.4,-44.93 -21.8,-90.94 -34.87,-140.67 -0.5,-1.9 -2.21,-3.16 -4.08,-3.16"
         style="fill:#b8d2ef;fill-opacity:1;fill-rule:nonzero;stroke:none"
         id="path206" />
      <path
         d="m 3732.95,2733.16 -1.11,0.15 c -2.26,0.61 -3.58,2.94 -2.97,5.19 l 95.75,350.82 c 0.51,1.88 2.19,3.13 4.06,3.13 0.37,0 0.76,-0.05 1.14,-0.16 2.25,-0.61 3.58,-2.94 2.97,-5.19 l -95.75,-350.83 c -0.52,-1.88 -2.22,-3.11 -4.09,-3.11"
         style="fill:#b8d2ef;fill-opacity:1;fill-rule:nonzero;stroke:none"
         id="path208" />
      <path
         d="m 4344.71,2997.16 -1.12,0.15 c -2.26,0.62 -3.58,2.94 -2.97,5.2 l 19.87,72.81 c 2.41,-0.09 4.84,-0.14 7.27,-0.14 0.49,0 0.98,0 1.47,0 l -20.45,-74.9 c -0.51,-1.89 -2.21,-3.12 -4.07,-3.12"
         style="fill:#b8d2ef;fill-opacity:1;fill-rule:nonzero;stroke:none"
         id="path210" />
      <path
         d="m 4367.76,3075.18 c -2.43,0 -4.86,0.05 -7.27,0.14 l 23.26,85.22 c 0.51,1.88 2.23,3.12 4.08,3.12 0.37,0 0.75,-0.05 1.12,-0.15 2.25,-0.62 3.58,-2.94 2.96,-5.2 l -22.68,-83.13 c -0.49,0 -0.98,0 -1.47,0"
         style="fill:#adc7eb;fill-opacity:1;fill-rule:nonzero;stroke:none"
         id="path212" />
      <path
         d="m 4261.16,3465.48 -1.12,0.16 c -2.25,0.61 -3.58,2.94 -2.96,5.19 l 15.49,56.76 c 0.51,1.89 2.23,3.12 4.08,3.12 0.37,0 0.74,-0.05 1.11,-0.15 2.26,-0.62 3.59,-2.95 2.97,-5.2 l -15.49,-56.75 c -0.51,-1.89 -2.22,-3.13 -4.08,-3.13"
         style="fill:#adc7eb;fill-opacity:1;fill-rule:nonzero;stroke:none"
         id="path214" />
      <path
         d="m 4047.58,3841.56 c -2.88,0.15 -5.78,0.26 -8.67,0.34 11.79,43.61 23.65,87.2 35.56,130.78 0.51,1.87 2.18,3.12 4.05,3.12 0.38,0 0.76,-0.05 1.15,-0.16 2.25,-0.62 3.58,-2.94 2.97,-5.2 -11.74,-42.94 -23.44,-85.9 -35.06,-128.88"
         style="fill:#b8d2ef;fill-opacity:1;fill-rule:nonzero;stroke:none"
         id="path216" />
      <path
         d="m 4020,3751.11 -1.1,0.14 c -2.26,0.61 -3.6,2.93 -2.99,5.19 7.63,28.5 15.3,56.99 23,85.46 2.89,-0.08 5.79,-0.19 8.67,-0.34 -7.87,-29.1 -15.7,-58.2 -23.5,-87.31 -0.5,-1.89 -2.22,-3.14 -4.08,-3.14"
         style="fill:#adc7eb;fill-opacity:1;fill-rule:nonzero;stroke:none"
         id="path218" />
      <path
         d="m 4656.58,3900.72 -1.13,0.16 c -2.25,0.62 -3.58,2.94 -2.95,5.2 l 10.16,36.99 c 15.35,55.88 30.7,111.76 45.99,167.66 0.52,1.88 2.21,3.11 4.08,3.11 0.37,0 0.75,-0.04 1.12,-0.15 2.25,-0.61 3.58,-2.94 2.97,-5.2 -15.3,-55.9 -30.65,-111.78 -46,-167.67 l -10.16,-36.99 c -0.52,-1.87 -2.22,-3.11 -4.08,-3.11"
         style="fill:#b8d2ef;fill-opacity:1;fill-rule:nonzero;stroke:none"
         id="path220" />
      <path
         d="m 4487.05,1571.85 -1.13,0.15 c -2.25,0.62 -3.58,2.95 -2.96,5.2 28.26,102.68 56.45,205.36 84.58,308.07 0.52,1.88 2.22,3.11 4.08,3.11 0.37,0 0.75,-0.04 1.12,-0.15 2.26,-0.62 3.58,-2.94 2.97,-5.2 -28.13,-102.7 -56.33,-205.4 -84.58,-308.07 -0.52,-1.88 -2.22,-3.11 -4.08,-3.11"
         style="fill:#b8d2ef;fill-opacity:1;fill-rule:nonzero;stroke:none"
         id="path222" />
      <path
         d="m 4643.72,2617.48 -1.1,0.15 c -2.26,0.6 -3.6,2.93 -2.99,5.18 31.86,118.59 57.87,216.72 81.87,308.83 0.5,1.91 2.2,3.17 4.08,3.17 0.36,0 0.72,-0.05 1.08,-0.14 2.27,-0.59 3.62,-2.9 3.03,-5.17 -24,-92.13 -50.02,-190.27 -81.89,-308.88 -0.51,-1.89 -2.21,-3.14 -4.08,-3.14"
         style="fill:#b8d2ef;fill-opacity:1;fill-rule:nonzero;stroke:none"
         id="path224" />
      <path
         d="m 1125.76,4033.36 -1.12,0.16 c -2.25,0.61 -3.58,2.94 -2.96,5.19 l 19.65,72.01 c 0.51,1.89 2.24,3.12 4.09,3.12 0.37,0 0.74,-0.05 1.11,-0.15 2.25,-0.61 3.58,-2.94 2.97,-5.19 l -19.66,-72.02 c -0.51,-1.88 -2.22,-3.12 -4.08,-3.12"
         style="fill:#b8d2ef;fill-opacity:1;fill-rule:nonzero;stroke:none"
         id="path226" />
      <path
         d="m 4349.34,4041.38 -1.12,0.16 c -2.25,0.61 -3.58,2.93 -2.97,5.19 l 33.87,124.09 c 0.51,1.88 2.22,3.12 4.07,3.12 0.37,0 0.75,-0.05 1.13,-0.15 2.25,-0.62 3.58,-2.94 2.97,-5.2 l -33.87,-124.09 c -0.52,-1.88 -2.22,-3.12 -4.08,-3.12"
         style="fill:#b8d2ef;fill-opacity:1;fill-rule:nonzero;stroke:none"
         id="path228" />
      <path
         d="m 4571.63,3728.26 -1.08,0.14 c -2.26,0.6 -3.61,2.91 -3.02,5.17 4.03,15.28 8.16,30.53 12.37,45.75 0.52,1.87 2.21,3.11 4.06,3.11 0.38,0 0.76,-0.05 1.15,-0.16 2.25,-0.62 3.57,-2.95 2.95,-5.2 -4.2,-15.2 -8.32,-30.41 -12.34,-45.65 -0.5,-1.9 -2.21,-3.16 -4.09,-3.16"
         style="fill:#b8d2ef;fill-opacity:1;fill-rule:nonzero;stroke:none"
         id="path230" />
      <path
         d="m 4545.41,837.25 -1.17,0.16 c -2.25,0.649 -3.54,3 -2.9,5.238 5.74,19.911 11.55,40.293 17.3,61 3.84,1.93 7.44,4.282 10.72,6.993 -6.6,-23.93 -13.29,-47.45 -19.88,-70.332 -0.54,-1.86 -2.23,-3.059 -4.07,-3.059 m 14.15,69.719 c 9.78,35.25 19.37,71.472 28.13,107.981 v -35.29 c -5.53,-21.781 -11.28,-43.359 -17.12,-64.621 -3.3,-3.129 -7,-5.848 -11.01,-8.07 m 30.63,82.609 v 35.892 c 1.19,5.09 2.37,10.18 3.53,15.27 0.44,1.96 2.18,3.29 4.12,3.29 0.31,0 0.62,-0.03 0.94,-0.1 2.28,-0.52 3.7,-2.79 3.19,-5.07 -3.75,-16.48 -7.7,-32.92 -11.78,-49.282"
         style="fill:#b8d2ef;fill-opacity:1;fill-rule:nonzero;stroke:none"
         id="path232" />
      <path
         d="m 4558.64,903.648 c 0.31,1.114 0.62,2.211 0.92,3.321 4.01,2.222 7.71,4.941 11.01,8.07 -0.4,-1.469 -0.81,-2.937 -1.21,-4.398 -3.28,-2.711 -6.88,-5.063 -10.72,-6.993 m 29.05,76.012 v 35.29 c 0.84,3.51 1.67,7.01 2.5,10.52 v -35.892 c -0.83,-3.308 -1.67,-6.617 -2.5,-9.918"
         style="fill:#a8c3e9;fill-opacity:1;fill-rule:nonzero;stroke:none"
         id="path234" />
      <path
         d="m 3085.94,2395.54 -28.47,-4.33 c -10.71,-1.63 -19.97,-8.33 -24.86,-17.99 l -22.85,-45.16 c -9.13,-18.05 -8.96,-39.41 0.46,-57.31 l 5.84,-11.08 c 47.7,3.95 96.35,43.37 96.35,43.37 l 15.11,9.7 c 13.46,8.64 17.53,25.41 9.36,38.52 l -18.83,30.2 c -6.51,10.43 -19.29,16.03 -32.11,14.08"
         style="fill:#f46b74;fill-opacity:1;fill-rule:nonzero;stroke:none"
         id="path236" />
      <path
         d="m 2744.72,2511.83 4.85,-20.71 5.76,-21.6 c 3.97,-14.43 8.12,-28.85 12.42,-43.2 8.82,-28.62 18.3,-56.95 28.91,-84.35 10.43,-27.44 21.77,-54.17 34.09,-78.96 11.98,-24.87 25.65,-47.91 38.43,-65.06 l -60.36,43.3 c 16.82,-4.05 31.81,-4.39 47.19,-1 15.39,3.06 31.61,10.79 48.48,21.88 16.69,11.68 33.62,26.93 49.04,45.15 7.71,9.07 14.91,18.96 21.64,28.99 3.35,5.02 6.55,10.09 9.52,15.08 1.42,2.49 2.75,5.02 3.94,7.39 l 1.61,3.35 c 0.22,0.65 1.29,2.68 0.14,1.23 l 226.76,-141.61 c -3.33,-4.89 -4.52,-6.24 -6.58,-8.96 l -5.35,-6.68 -10.42,-12.36 c -6.83,-8.01 -13.73,-15.69 -20.8,-23.18 -14.07,-15 -28.99,-29.06 -44.5,-42.8 -31.06,-27.34 -65.64,-52.69 -105.23,-73.81 -19.93,-10.44 -41.08,-19.86 -63.52,-27.4 -22.36,-7.65 -46.38,-12.91 -70.76,-16.21 -49.06,-6.61 -100.37,-0.9 -146.02,13.1 l -3.32,1.01 c -24.21,7.43 -43.92,22.8 -57.05,42.3 -23.43,34.81 -39.94,67.68 -55.11,99.97 -14.92,32.37 -27.83,64.18 -39.98,95.86 -11.99,31.75 -23.25,63.26 -33.95,94.86 -5.44,15.77 -10.68,31.58 -15.76,47.49 l -15.36,49.03 221.29,57.9"
         style="fill:#406fbf;fill-opacity:1;fill-rule:nonzero;stroke:none"
         id="path238" />
      <path
         d="m 2579.38,2287.34 c 1.05,-2.84 2.08,-5.68 3.14,-8.53 l 19.57,11.95 c 57.98,35.47 116.84,71.42 177.38,99.3 -0.94,2.83 -1.82,5.69 -2.75,8.53 -61.28,-28.13 -120.73,-64.41 -179.28,-100.23 l -18.06,-11.02"
         style="fill:#ffffff;fill-opacity:1;fill-rule:nonzero;stroke:none"
         id="path240" />
      <path
         d="m 3074.81,2281.29 c -3.9,-5.68 -7.65,-11.15 -11.01,-16.35 -28.67,-44.35 -49.29,-95.17 -59.64,-146.95 -6.41,-32.06 -1.9,-54.73 13.37,-67.36 l 0.12,-0.08 c 2.19,1.13 4.44,2.2 6.6,3.36 l 2.32,1.34 c -1.14,0.71 -2.3,1.37 -3.36,2.24 -12.56,10.39 -16.02,30.15 -10.31,58.76 10.13,50.69 30.32,100.43 58.38,143.85 3.32,5.14 7.03,10.53 10.88,16.14 4.6,6.71 9.42,13.73 14.06,20.98 l -7.58,4.73 c -4.55,-7.14 -9.29,-14.06 -13.83,-20.66"
         style="fill:#ffffff;fill-opacity:1;fill-rule:nonzero;stroke:none"
         id="path242" />
      <path
         d="m 2847.63,2113.37 c 16.92,-3.61 73.24,-18.59 87.34,-59.77 3.99,-11.67 3.7,-23.19 0.69,-34.41 3.29,0.85 6.59,1.68 9.83,2.61 2.23,11.2 1.98,22.77 -2.1,34.69 -15.61,45.61 -75.82,61.74 -93.91,65.6 -65.72,14.01 -130.87,8.83 -195.3,-6.69 1.45,-2.68 2.94,-5.36 4.45,-8.06 62.55,14.82 125.65,19.55 189,6.03"
         style="fill:#ffffff;fill-opacity:1;fill-rule:nonzero;stroke:none"
         id="path244" />
      <path
         d="m 2643.33,2826.43 c 91.59,31.61 13.37,116.11 13.37,116.11 0,0 9.4,-33.65 -35,-25.23 -44.72,8.48 30.54,150.51 -45.21,128.72 -63.73,6.35 -66.59,-265.65 66.84,-219.6"
         style="fill:#17282f;fill-opacity:1;fill-rule:nonzero;stroke:none"
         id="path246" />
      <path
         d="m 2969.28,306.391 c -2.74,-19.891 17.29,-76.899 41.24,-117.602 l -124.06,96.109 c 0,0 13,30.473 82.82,21.493"
         style="fill:#406fbf;fill-opacity:1;fill-rule:nonzero;stroke:none"
         id="path248" />
      <path
         d="m 2130.25,292.73 c -11.27,-17.039 -34.86,-69.91 -31.38,-116.839 -85.76,7.847 -64.68,63.488 -52.45,131.019 0,0 25.15,22.512 83.83,-14.18"
         style="fill:#406fbf;fill-opacity:1;fill-rule:nonzero;stroke:none"
         id="path250" />
      <path
         d="m 2101.56,164.18 c -33.16,42.39 18.55,128.832 18.55,128.832 0,0 -27.97,17.179 -73.04,18.019 -40.42,-45.691 -31.75,-140.961 54.49,-146.851"
         style="fill:#406fbf;fill-opacity:1;fill-rule:nonzero;stroke:none"
         id="path252" />
      <path
         d="m 2092.24,184.262 c -51.21,6.058 -52.21,56.687 -34.5,102.527 20.73,-3.648 40.31,-5.859 55.75,-6.07 -8.74,-17.348 -23.01,-50.207 -23.03,-79.68 0,-5.769 0.54,-11.41 1.78,-16.777"
         style="fill:#3563b7;fill-opacity:1;fill-rule:nonzero;stroke:none"
         id="path254" />
      <path
         d="m 1949.39,182.199 c 0,0 145.51,-70.777 229.15,-54.301 37.38,7.364 6.5,58.954 -71.13,55.852 -77.63,-3.102 -68.07,74.379 -37.67,128.5 -59.28,31.59 -95.96,17.102 -95.96,17.102 -1.48,-57.973 -6.78,-110.801 -24.39,-147.153"
         style="fill:#406fbf;fill-opacity:1;fill-rule:nonzero;stroke:none"
         id="path256" />
      <path
         d="m 1948.75,165.191 113.16,-39.632 c 26.73,-9.36 55.01,-14.137 83.67,-14.137 h 40.11 c 3.65,0 6.76,2.976 6.89,6.637 l 0.4,10.531 c 0.14,3.66 -2.73,6.648 -6.38,6.648 l -33.12,-0.398 c -29.95,-0.36 -59.54,4.5 -87.44,14.359 l -110.52,39.071 c -3.51,0.91 -7.22,-1.25 -8.26,-4.79 l -2.99,-10.21 c -1.04,-3.54 0.98,-7.168 4.48,-8.079"
         style="fill:#406fbf;fill-opacity:1;fill-rule:nonzero;stroke:none"
         id="path258" />
      <path
         d="m 2185.69,111.422 h -40.11 c -28.66,0 -56.94,4.777 -83.67,14.137 l -113.16,39.632 c -2.87,0.739 -4.75,3.321 -4.76,6.18 0,0.621 0.09,1.258 0.28,1.899 l 2.99,10.21 c 0.88,2.989 3.67,5 6.63,5 0.54,0 1.09,-0.07 1.63,-0.21 l 110.52,-39.071 c 26.95,-9.519 55.46,-14.379 84.37,-14.379 1.02,0 2.05,0.012 3.07,0.02 l 33.12,0.398 c 3.56,0 6.39,-2.847 6.39,-6.386 0,-0.082 0,-0.172 -0.01,-0.262 l -0.4,-10.531 c -0.13,-3.661 -3.24,-6.637 -6.89,-6.637"
         style="fill:#90b4e3;fill-opacity:1;fill-rule:nonzero;stroke:none"
         id="path260" />
      <path
         d="m 3026.02,187.461 c -52.78,19.18 -68.42,113.238 -68.42,113.238 0,0 -19.34,5.563 -60.22,-16.418 -11.44,-58.992 48.08,-135.23 128.64,-96.82"
         style="fill:#406fbf;fill-opacity:1;fill-rule:nonzero;stroke:none"
         id="path262" />
      <path
         d="m 2979.75,193.988 c -39.09,0 -65.86,38.762 -73.33,80.301 20.37,2.75 40.05,4.383 55.55,7.18 6.15,-22.957 19.47,-60.891 43.99,-82 -9.24,-3.758 -18,-5.481 -26.21,-5.481"
         style="fill:#3563b7;fill-opacity:1;fill-rule:nonzero;stroke:none"
         id="path264" />
      <path
         d="m 2879.74,126.129 c 0,0 187.52,51.621 225.14,61.992 37.62,10.348 -16.31,60.527 -84.25,18.84 -67.94,-41.691 -114.12,25.211 -116.25,86.289 -70.32,-3.109 -82.69,-30.352 -82.69,-30.352 30.16,-49.777 54.11,-97.156 58.05,-136.769"
         style="fill:#406fbf;fill-opacity:1;fill-rule:nonzero;stroke:none"
         id="path266" />
      <path
         d="m 2888.41,111.422 228.68,62.957 c 3.63,1 5.8,4.703 4.8,8.211 l -2.86,10.148 c -0.99,3.512 -4.78,5.571 -8.41,4.571 l -228.68,-62.957 c -3.64,-1 -5.8,-4.704 -4.81,-8.223 l 2.86,-10.137 c 1,-3.512 4.79,-5.57 8.42,-4.57"
         style="fill:#406fbf;fill-opacity:1;fill-rule:nonzero;stroke:none"
         id="path268" />
      <path
         d="m 2886.54,111.16 c -2.98,0 -5.72,1.922 -6.55,4.832 l -2.86,10.137 c -0.16,0.582 -0.24,1.16 -0.24,1.742 0,2.918 2.01,5.641 5.05,6.481 l 228.68,62.957 c 0.62,0.171 1.25,0.25 1.86,0.25 2.99,0 5.73,-1.911 6.55,-4.821 l 2.86,-10.148 c 0.17,-0.57 0.24,-1.149 0.24,-1.731 0.01,-2.918 -2,-5.64 -5.04,-6.48 l -228.68,-62.957 c -0.62,-0.172 -1.25,-0.262 -1.87,-0.262"
         style="fill:#90b4e3;fill-opacity:1;fill-rule:nonzero;stroke:none"
         id="path270" />
      <path
         d="m 2493.98,1475.75 c 25.39,-83.35 57.19,-174.96 97.26,-273.77 -7.59,-122.73 95.16,-726.429 220.91,-964.378 44.06,49.32 159.42,31.5 178.73,55.648 -77.23,232.641 -163.67,677.031 -184.17,919.48 -20.5,242.46 -90.64,811.58 -90.64,811.58 l -319.24,4.32 c 0,0 -8.08,-205.88 97.15,-552.88"
         style="fill:#17282f;fill-opacity:1;fill-rule:nonzero;stroke:none"
         id="path272" />
      <path
         d="m 1952.85,316.82 c 60.02,-27.25 182.46,-47.761 192.67,-28.66 19.16,112.942 219.91,711.11 251.16,814.16 24.32,79.96 70.95,263.63 97.3,373.43 64.09,266.57 138.3,552.88 138.3,552.88 h -285.05 c 0,0 -118.28,-134.17 -157.89,-895.51 -51.45,-90.65 -214.69,-698.518 -236.49,-816.3"
         style="fill:#17282f;fill-opacity:1;fill-rule:nonzero;stroke:none"
         id="path274" />
      <path
         d="m 2410.46,2823.85 c 15.25,-56.38 33.99,-159.7 -2.66,-197.32 0,0 23.52,-60.32 157.51,-52.18 97.8,5.94 17.74,52.17 17.74,52.17 -64,15.02 -65.85,61.67 -58.17,105.48 l -114.42,91.85"
         style="fill:#f46b74;fill-opacity:1;fill-rule:nonzero;stroke:none"
         id="path276" />
      <path
         d="m 2362.31,2937.03 c 17.11,-91.05 22.42,-129.85 74.37,-173.51 78.15,-65.69 185.52,-30.94 195.79,61.88 9.23,83.55 -20.3,218.4 -114.12,248.47 -92.43,29.62 -173.15,-45.79 -156.04,-136.84"
         style="fill:#f46b74;fill-opacity:1;fill-rule:nonzero;stroke:none"
         id="path278" />
      <path
         d="m 2506.54,2921.86 c 1.1,-7.7 5.99,-13.66 10.93,-13.29 4.93,0.36 8.03,6.9 6.93,14.6 -1.1,7.71 -6,13.66 -10.93,13.3 -4.93,-0.37 -8.04,-6.91 -6.93,-14.61"
         style="fill:#17282f;fill-opacity:1;fill-rule:nonzero;stroke:none"
         id="path280" />
      <path
         d="m 2599.53,2927.34 c 1.11,-7.7 6,-13.65 10.93,-13.29 4.94,0.36 8.04,6.9 6.94,14.61 -1.11,7.7 -6,13.65 -10.94,13.29 -4.93,-0.37 -8.03,-6.91 -6.93,-14.61"
         style="fill:#17282f;fill-opacity:1;fill-rule:nonzero;stroke:none"
         id="path282" />
      <path
         d="m 2604.35,2941.36 17.35,6.67 c 0,0 -7.22,-15.14 -17.35,-6.67"
         style="fill:#17282f;fill-opacity:1;fill-rule:nonzero;stroke:none"
         id="path284" />
      <path
         d="m 2575.47,2912.8 c 0,0 17.57,-32.22 33.96,-47.18 -8.6,-10.23 -26.16,-7.14 -26.16,-7.14 l -7.8,54.32"
         style="fill:#f14358;fill-opacity:1;fill-rule:nonzero;stroke:none"
         id="path286" />
      <path
         d="m 2543.96,2826.81 c 4.01,-0.42 8.29,-0.51 12.82,-0.18 1.22,0.09 2.07,1.18 1.89,2.43 -0.18,1.24 -1.29,2.18 -2.55,2.1 -33.09,-2.46 -51.97,20.03 -52.16,20.26 -0.81,1 -2.23,1.19 -3.15,0.43 -0.93,-0.75 -1.02,-2.18 -0.2,-3.17 0.72,-0.88 15.91,-19.01 43.35,-21.87"
         style="fill:#17282f;fill-opacity:1;fill-rule:nonzero;stroke:none"
         id="path288" />
      <path
         d="m 2342.91,2865.48 c 10.8,-17.86 26.97,-28.1 41.31,-30.69 21.57,-3.91 28.79,21.05 19.8,44.66 -8.08,21.26 -29.04,48.91 -49.26,41.98 -19.91,-6.82 -24.2,-35.53 -11.85,-55.95"
         style="fill:#f46b74;fill-opacity:1;fill-rule:nonzero;stroke:none"
         id="path290" />
      <path
         d="m 2399.75,2990.58 c 57.43,-28.71 -18.25,-117.99 32.18,-128.23 34.16,-6.92 30.92,25.75 30.92,25.75 0,0 82.45,-53.72 -27.95,-109.91 -120.24,-61.19 -238.14,105.45 -123.27,251.01 -45.56,55.94 186.71,115.77 255.95,67.83 66.5,-46.05 0.5,-97.46 -50.39,-89.12 15.73,7.43 17.72,33.17 -5.84,19.31 -23.62,-13.89 -51.7,-41.09 -111.6,-36.64"
         style="fill:#17282f;fill-opacity:1;fill-rule:nonzero;stroke:none"
         id="path292" />
      <path
         d="m 2482.41,2960.92 c 1.17,0.16 2.24,0.78 2.93,1.82 10.6,16.21 27.24,15.6 27.43,15.6 2.47,-0.1 4.48,1.78 4.42,4.26 -0.07,2.48 -2.14,4.57 -4.65,4.7 -0.87,0.03 -21.77,0.82 -34.92,-19.31 -1.31,-2 -0.65,-4.81 1.48,-6.26 1.03,-0.7 2.21,-0.96 3.31,-0.81"
         style="fill:#17282f;fill-opacity:1;fill-rule:nonzero;stroke:none"
         id="path294" />
      <path
         d="m 2617.2,2987.26 c 1.12,-0.09 2.24,0.24 3.11,1 1.8,1.58 1.87,4.43 0.15,6.36 -17.17,19.29 -37.65,17.27 -38.52,17.16 -2.45,-0.27 -4.06,-2.5 -3.61,-4.98 0.45,-2.47 2.8,-4.25 5.24,-3.99 0.8,0.09 16.72,1.43 30.38,-13.92 0.88,-0.99 2.07,-1.55 3.25,-1.63"
         style="fill:#17282f;fill-opacity:1;fill-rule:nonzero;stroke:none"
         id="path296" />
      <path
         d="m 2511.35,2935.88 17.36,6.66 c 0,0 -7.23,-15.13 -17.36,-6.66"
         style="fill:#17282f;fill-opacity:1;fill-rule:nonzero;stroke:none"
         id="path298" />
      <path
         d="m 2771.06,2075.67 c -0.85,204.45 -14.85,380.34 -16.02,416.04 -1.65,50.2 -29.7,88.59 -73.86,110.96 24.4,62.98 50.65,139.95 31.96,183.71 -129.22,29.69 -336.59,27.24 -430.73,-17.84 -52.72,-25.25 26,-112.14 26,-112.14 0,0 -44.23,-17.07 -10.75,-51.19 -43.33,-28.92 -71.23,-65.66 -86.54,-207.25 -25.83,-238.92 -173.64,-1458.73 -181.39,-1560.999 325.95,-37.621 829.25,97.848 866.24,124.758 -0.66,118.751 -123.42,757.491 -124.91,1113.951"
         style="fill:#406fbf;fill-opacity:1;fill-rule:nonzero;stroke:none"
         id="path300" />
      <path
         d="m 2277.21,2700.13 c 52.48,17.13 106.39,26.04 162.26,21.41 17.24,-1.44 75,-9.14 94.22,-48.21 17.99,-36.59 -10.1,-77.48 -32.67,-110.35 -3.9,-5.67 -7.66,-11.14 -11.02,-16.34 -28.67,-44.36 -49.29,-95.17 -59.63,-146.95 -6.41,-32.06 -1.91,-54.72 13.37,-67.36 9.24,-7.65 20.61,-10.17 32.39,-10.17 8.83,0 17.9,1.42 26.48,3.15 92.39,18.6 176.15,58.7 255.91,105.11 -0.21,3.42 -0.41,6.75 -0.6,9.95 -80.26,-46.98 -164.43,-87.67 -257.07,-106.32 -17.96,-3.64 -38.14,-5.85 -51.43,5.15 -12.56,10.38 -16.03,30.15 -10.31,58.75 10.13,50.68 30.31,100.43 58.37,143.85 3.33,5.13 7.03,10.53 10.88,16.14 23.9,34.78 53.62,78.06 33.32,119.33 -21.28,43.26 -83.05,51.62 -101.47,53.15 -57.73,4.78 -113.23,-4.55 -167.13,-22.3 1.28,-2.69 2.68,-5.36 4.13,-7.99"
         style="fill:#ffffff;fill-opacity:1;fill-rule:nonzero;stroke:none"
         id="path302" />
      <path
         d="m 2261.02,2041.79 c 17.58,11.2 35.14,22.39 52.76,33.4 105.33,65.87 218.33,131.54 339.79,147.95 33.6,4.53 60.18,3.74 83.7,-2.5 11.68,-3.11 21.99,-8.13 31.57,-14.28 -0.11,3.61 -0.22,7.17 -0.33,10.73 -8.87,5.15 -18.43,9.36 -28.96,12.16 -24.68,6.55 -52.39,7.43 -87.17,2.72 -123.21,-16.65 -237.17,-82.84 -343.33,-149.22 -17.63,-11.03 -35.22,-22.23 -52.81,-33.44 -30.37,-19.34 -61.04,-38.84 -92.22,-57.59 -0.44,-3.73 -0.88,-7.41 -1.32,-11.17 33.31,19.88 65.98,40.64 98.32,61.24"
         style="fill:#ffffff;fill-opacity:1;fill-rule:nonzero;stroke:none"
         id="path304" />
      <path
         d="m 2625.86,1812.98 c -2.96,-10.09 -6.01,-20.51 -8.1,-31.05 -3.1,-15.68 -7.57,-54.67 17.75,-78.11 13.05,-12.08 32.39,-18.21 59.11,-18.74 35.11,-0.73 69.81,4.93 104.09,14.12 -0.35,3.01 -0.7,6.02 -1.04,9.02 -33.99,-9.2 -68.31,-14.88 -102.87,-14.23 -24.45,0.48 -41.86,5.84 -53.24,16.37 -22.02,20.39 -17.86,55.63 -15.06,69.84 2.02,10.14 5.01,20.37 7.91,30.27 4.47,15.2 9.08,30.94 10.4,47.2 2.97,36.74 -12.21,74.87 -39.62,99.52 -57.49,51.69 -140.42,30.22 -213.96,2.41 -23.83,-9.02 -47.96,-18.65 -71.28,-27.96 -55.43,-22.12 -112.14,-44.59 -170.26,-61.12 -0.38,-3.19 -0.75,-6.36 -1.14,-9.57 59.77,16.72 117.91,39.75 174.7,62.41 23.29,9.3 47.38,18.91 71.13,27.9 71.03,26.87 150.91,47.79 204.85,-0.7 25.39,-22.82 39.45,-58.14 36.69,-92.17 -1.24,-15.35 -5.72,-30.63 -10.06,-45.41"
         style="fill:#ffffff;fill-opacity:1;fill-rule:nonzero;stroke:none"
         id="path306" />
      <path
         d="m 2338.11,1376.29 2.53,5.72 c 6.42,14.55 12.74,29.51 19.15,44.67 32.84,77.76 66.8,158.18 126.62,214.25 17.85,16.73 34.06,25.05 49.55,25.46 29.89,0.91 51.63,-27.36 59.53,-39.48 5.66,-8.68 10.65,-18.1 15.48,-27.2 7.43,-14.01 15.11,-28.49 25.52,-41.05 23.52,-28.38 61.06,-44.97 97.84,-43.58 33.02,1.34 60,15.56 82.71,36.9 -0.49,3.69 -0.98,7.4 -1.46,11.1 -22.32,-22.55 -48.9,-37.77 -81.61,-39.09 -34.15,-1.4 -68.83,14.07 -90.62,40.36 -9.82,11.86 -17.29,25.92 -24.5,39.53 -4.93,9.29 -10.02,18.88 -15.89,27.89 -8.73,13.39 -32.72,44.6 -67.23,43.52 -17.77,-0.46 -35.9,-9.57 -55.41,-27.86 -61.2,-57.36 -95.54,-138.66 -128.75,-217.28 -6.37,-15.11 -12.68,-30.04 -19.09,-44.54 l -2.52,-5.73 c -34.88,-79.11 -78.3,-177.56 -157.39,-220.4 -25.75,-13.94 -53.78,-16.24 -74.98,-6.17 -11.55,5.49 -20.94,13.48 -29.95,22.39 -0.44,-3.69 -0.87,-7.39 -1.29,-11.05 8.13,-7.51 16.94,-14.41 27.41,-19.39 23.76,-11.3 54.81,-8.91 83.06,6.39 81.76,44.28 125.87,144.28 161.29,224.64"
         style="fill:#ffffff;fill-opacity:1;fill-rule:nonzero;stroke:none"
         id="path308" />
      <path
         d="m 2873.7,1154.55 c -22.16,-22.21 -46.75,-38.9 -73.3,-43.2 -53.83,-8.77 -67.35,40.35 -80.35,87.83 -5.98,21.83 -11.62,42.44 -21.05,57.1 -17.01,26.45 -40.5,42.17 -69.82,46.72 -55.91,8.64 -121.29,-25.95 -160.3,-58.23 -112.95,-93.49 -217.21,-222.16 -301.52,-372.079 -7.83,-13.921 -15.36,-28.043 -22.74,-42.23 3.32,-0.031 6.65,-0.031 9.99,-0.031 6.68,12.73 13.48,25.39 20.51,37.898 83.78,148.972 187.33,276.772 299.44,369.572 37.58,31.11 100.27,64.53 153.25,56.3 26.69,-4.15 48.12,-18.52 63.69,-42.74 8.69,-13.51 14.16,-33.49 19.95,-54.63 13.38,-48.88 28.48,-104.28 90.38,-94.28 26.68,4.32 51.28,19.95 73.44,41.02 -0.52,3.63 -1.04,7.28 -1.57,10.98"
         style="fill:#ffffff;fill-opacity:1;fill-rule:nonzero;stroke:none"
         id="path310" />
      <g
         id="g312">
        <g
           id="g314"
           clip-path="url(#clipPath318)">
          <path
             d="m 2127.41,1682.71 h 29.0508 v 245.02 H 2127.41 Z"
             style="fill:#c3c5c2;fill-opacity:1;fill-rule:nonzero;stroke:none"
             id="path320" />
        </g>
      </g>
      <path
         d="m 2125.87,1669.47 c -0.01,0 -0.02,0.01 -0.03,0.01 0.52,4.42 1.05,8.84 1.57,13.26 l 0.03,-0.03 c -0.52,-4.42 -1.04,-8.82 -1.57,-13.24"
         style="fill:#b6b8b6;fill-opacity:1;fill-rule:nonzero;stroke:none"
         id="path322" />
      <path
         d="m 2210.41,1644.97 c -32.78,8.2 -60.75,16.3 -84.54,24.5 0.53,4.42 1.05,8.82 1.57,13.24 7.14,60.22 14.23,120.11 21.12,178.24 26.7,7.47 53.08,16.2 79.15,25.6 -7.13,-75.43 -13.23,-156.59 -17.3,-241.58 m -60.72,225.55 c 2.28,19.3 4.54,38.36 6.77,57.21 2.11,17.85 4.2,35.47 6.25,52.83 27.21,16.23 54,33.07 80.53,49.92 -5.1,-42.1 -10.04,-86.96 -14.59,-134.12 -26.03,-9.46 -52.35,-18.27 -78.96,-25.84 m 14.34,121.21 c 11.21,94.8 21.38,181.29 29.63,252.36 l 107.02,151.41 c -2.4,-12.01 -30.8,-148.61 -56.04,-353.57 -26.57,-16.91 -53.39,-33.84 -80.61,-50.2"
         style="fill:#3563b7;fill-opacity:1;fill-rule:nonzero;stroke:none"
         id="path324" />
      <path
         d="m 2162.71,1980.56 c 0.44,3.74 0.88,7.46 1.32,11.17 27.22,16.36 54.04,33.29 80.61,50.2 -0.47,-3.78 -0.94,-7.63 -1.4,-11.45 -26.53,-16.85 -53.32,-33.69 -80.53,-49.92"
         style="fill:#c3c5c2;fill-opacity:1;fill-rule:nonzero;stroke:none"
         id="path326" />
      <path
         d="m 2148.55,1860.95 c 0.39,3.21 0.76,6.38 1.14,9.57 v 0 c 26.61,7.57 52.93,16.38 78.96,25.84 -0.31,-3.27 -0.62,-6.52 -0.94,-9.81 -26.07,-9.4 -52.45,-18.13 -79.16,-25.6 v 0"
         style="fill:#c3c5c2;fill-opacity:1;fill-rule:nonzero;stroke:none"
         id="path328" />
      <path
         d="m 2222.26,1656.08 c 66.09,91.84 143.33,112.88 143.33,112.88 -23.76,-62.38 -103.97,-110.65 -143.33,-112.88"
         style="fill:#3563b7;fill-opacity:1;fill-rule:nonzero;stroke:none"
         id="path330" />
      <path
         d="m 2695.22,973.98 c -0.17,2.7 -8.55,130.74 -16.53,293.84 3.36,-3.5 6.52,-7.32 9.49,-11.46 7.79,-157.29 15.77,-279.161 15.94,-281.79 l -8.9,-0.59 m -7.78,297.54 c -2.98,3.31 -6.11,6.38 -9.37,9.2 -3.84,79.56 -7.52,166.75 -10.09,251.38 2.95,-1.73 5.97,-3.34 9.06,-4.82 2.66,-86.4 6.47,-175.25 10.4,-255.76 m -10.71,265.83 c -3.11,1.65 -6.13,3.44 -9.07,5.37 -1.48,50.49 -2.55,99.86 -3,146.05 2.85,-0.73 5.82,-1.36 8.93,-1.87 0.48,-47.27 1.6,-97.89 3.14,-149.55 m -3.22,158.6 c -3.14,0.57 -6.11,1.26 -8.93,2.07 -0.35,44.54 -0.1,85.86 0.94,121.99 3.38,117.55 0.13,267.42 -5.83,403.91 2.96,0.35 5.87,0.65 8.73,0.92 6.07,-137.02 9.39,-287.31 6,-405.08 -1.05,-36.61 -1.29,-78.57 -0.91,-123.81 m -14.22,536.89 c -2.24,49.99 -4.83,97.99 -7.59,141.81 2.83,1.28 5.65,2.57 8.46,3.88 2.85,-44.65 5.55,-93.72 7.86,-144.78 -2.86,-0.26 -5.77,-0.56 -8.73,-0.91 m -8.19,151.32 c -7.17,111.44 -15.33,193.66 -21.13,207.58 l -0.53,1.26 0.27,1.33 c 7.38,36.91 18.54,92.69 14.77,181.62 l 8.9,0.38 c 3.77,-89.02 -7.22,-145.18 -14.69,-182.52 5.82,-17.34 13.79,-97.76 20.85,-205.74 -2.81,-1.32 -5.62,-2.62 -8.44,-3.91"
         style="fill:#3563b7;fill-opacity:1;fill-rule:nonzero;stroke:none"
         id="path332" />
      <path
         d="m 2651.7,2374.65 c -0.2,3.18 -0.4,6.38 -0.6,9.51 2.82,1.29 5.63,2.59 8.44,3.91 0.21,-3.16 0.41,-6.34 0.62,-9.54 -2.81,-1.31 -5.63,-2.6 -8.46,-3.88"
         style="fill:#c3c5c2;fill-opacity:1;fill-rule:nonzero;stroke:none"
         id="path334" />
      <path
         d="m 2659.69,2223.92 c -0.13,2.97 -0.27,5.96 -0.4,8.92 2.96,0.35 5.87,0.65 8.73,0.91 0.14,-2.96 0.27,-5.94 0.4,-8.91 -2.86,-0.27 -5.77,-0.57 -8.73,-0.92"
         style="fill:#c3c5c2;fill-opacity:1;fill-rule:nonzero;stroke:none"
         id="path336" />
      <path
         d="m 2673.59,1686.9 c -3.11,0.51 -6.08,1.14 -8.93,1.87 -0.03,3.08 -0.05,6.2 -0.08,9.25 2.82,-0.81 5.79,-1.5 8.93,-2.07 0.02,-2.99 0.05,-6.03 0.08,-9.05"
         style="fill:#c3c5c2;fill-opacity:1;fill-rule:nonzero;stroke:none"
         id="path338" />
      <path
         d="m 2677.04,1527.28 c -3.09,1.48 -6.11,3.09 -9.06,4.82 -0.11,3.54 -0.22,7.09 -0.32,10.62 2.94,-1.93 5.96,-3.72 9.07,-5.37 0.1,-3.35 0.2,-6.71 0.31,-10.07"
         style="fill:#c3c5c2;fill-opacity:1;fill-rule:nonzero;stroke:none"
         id="path340" />
      <path
         d="m 2688.18,1256.36 c -2.97,4.14 -6.13,7.96 -9.49,11.46 -0.21,4.28 -0.41,8.57 -0.62,12.9 3.26,-2.82 6.39,-5.89 9.37,-9.2 0.24,-5.09 0.49,-10.14 0.74,-15.16"
         style="fill:#c3c5c2;fill-opacity:1;fill-rule:nonzero;stroke:none"
         id="path342" />
      <path
         d="m 2414.67,2402.39 -8.74,-7.16 -9.64,-8.2 c -6.44,-5.6 -12.77,-11.4 -19.11,-17.27 -12.67,-11.73 -25.15,-23.74 -37.33,-35.95 -24.24,-24.53 -47.22,-49.97 -67.86,-76.08 -20.66,-25.98 -39.24,-52.68 -53.47,-78.64 -14.54,-25.59 -23.81,-51.35 -26.11,-68.29 l 1.66,19.32 c 0.54,-12.03 2,-25.01 5,-38.52 2.92,-13.53 7.5,-27.76 12.7,-42.12 10.66,-28.88 26.09,-58.39 43.97,-87.44 18.04,-28.99 38.97,-57.47 61.67,-84.73 11.36,-13.64 23.42,-26.82 35.6,-39.66 6.1,-6.4 12.26,-12.7 18.42,-18.81 l 9.31,-8.76 4.52,-4.09 c 1.28,-1.09 3.25,-2.91 3.49,-2.87 l -192.37,-185.65 c -3.23,3.64 -4.65,5.49 -6.77,8.07 l -5.58,7 -10.59,13.68 c -6.98,8.98 -13.72,17.96 -20.33,26.99 -13.26,18.04 -25.76,36.44 -38.12,55.01 -24.57,37.24 -47.9,75.59 -68.84,116.48 -21.2,40.7 -39.9,83.94 -54.76,130.9 -14.69,46.9 -24.78,98.47 -24.62,154.52 l 0.01,1.91 c 0.01,5.77 0.65,11.94 1.65,17.43 5.39,28.63 13.92,53.7 23.54,76.7 9.74,22.92 20.28,44.11 31.77,63.63 22.89,39.24 47.97,73.82 73.87,106.62 26.12,32.55 53,63.26 80.78,92.76 13.82,14.82 27.87,29.32 42.26,43.58 l 21.85,21.29 11.16,10.74 12.35,11.45 148.66,-173.84"
         style="fill:#406fbf;fill-opacity:1;fill-rule:nonzero;stroke:none"
         id="path344" />
      <path
         d="m 2212.54,2524.38 c 3.8,-4.19 7.15,-8.86 9.74,-14.13 18,-36.59 -10.09,-77.49 -32.67,-110.35 -3.9,-5.68 -7.65,-11.14 -11.01,-16.34 -28.67,-44.36 -49.29,-95.17 -59.64,-146.95 -6.41,-32.06 -1.91,-54.72 13.37,-67.36 9.25,-7.65 20.61,-10.17 32.39,-10.17 8.83,0 17.9,1.42 26.49,3.15 7.02,1.41 13.97,3.03 20.89,4.69 1.76,3.49 3.58,6.99 5.55,10.51 -9.32,-2.36 -18.71,-4.55 -28.2,-6.46 -17.97,-3.64 -38.15,-5.85 -51.44,5.14 -12.56,10.39 -16.03,30.16 -10.3,58.75 10.12,50.69 30.31,100.44 58.37,143.86 3.32,5.13 7.03,10.53 10.88,16.14 23.89,34.77 53.62,78.06 33.32,119.33 -3.07,6.24 -7.06,11.69 -11.57,16.56 -2.09,-2.09 -4.09,-4.27 -6.17,-6.37"
         style="fill:#ffffff;fill-opacity:1;fill-rule:nonzero;stroke:none"
         id="path346" />
      <path
         d="m 2058.19,2175.11 c -10.24,29.93 -39.65,47.11 -63.81,56.52 -0.8,-1.84 -1.63,-3.61 -2.41,-5.47 l -1.07,-2.7 c 22.48,-8.68 49.66,-24.35 58.87,-51.24 13.2,-38.58 -19.85,-75.58 -46.41,-105.31 -4.59,-5.14 -9.01,-10.09 -13,-14.81 -4.84,-5.74 -9.49,-11.65 -14.03,-17.67 0.78,-3.94 1.63,-7.83 2.49,-11.72 5.88,8.1 11.94,16.04 18.35,23.63 3.94,4.68 8.3,9.55 12.83,14.63 28.12,31.47 63.1,70.63 48.19,114.14"
         style="fill:#ffffff;fill-opacity:1;fill-rule:nonzero;stroke:none"
         id="path348" />
      <path
         d="m 2278.3,1928.3 c -75.35,-33.76 -152.88,-63.91 -234.33,-79.23 0.75,-1.44 1.43,-2.94 2.18,-4.38 0.68,-1.32 1.4,-2.59 2.09,-3.91 81.93,15.72 159.72,46.17 235.29,80.1 -1.79,2.46 -3.48,4.95 -5.23,7.42"
         style="fill:#ffffff;fill-opacity:1;fill-rule:nonzero;stroke:none"
         id="path350" />
      <path
         d="m 3090.92,1899.04 c -47.96,0 -94.04,26.99 -116,73.08 -3.21,6.74 -0.35,14.8 6.37,18 6.73,3.21 14.79,0.35 18,-6.37 24.02,-50.42 84.57,-71.87 135,-47.87 50.4,24.03 71.87,84.59 47.85,134.99 l -768.86,1613.55 c -3.2,6.73 -0.35,14.79 6.38,18 6.74,3.19 14.79,0.35 18,-6.38 l 768.86,-1613.55 c 30.43,-63.85 3.24,-140.56 -60.62,-170.99 -17.76,-8.46 -36.51,-12.46 -54.98,-12.46"
         style="fill:#17282f;fill-opacity:1;fill-rule:nonzero;stroke:none"
         id="path352" />
      <path
         d="m 2461.62,3614.38 c 490.38,233.67 994.84,198.68 1082.16,15.41 L 1767.96,2783.61 c -87.32,183.27 203.27,597.11 693.66,830.77"
         style="fill:#406fbf;fill-opacity:1;fill-rule:nonzero;stroke:none"
         id="path354" />
      <path
         d="m 1767.94,2783.61 c -32.07,67.34 -13.15,165.77 47.96,274.97 v 0 c -61.09,-109.2 -80.02,-207.64 -47.94,-274.97 h -0.02"
         style="fill:#ffffff;fill-opacity:1;fill-rule:nonzero;stroke:none"
         id="path356" />
      <path
         d="m 1815.9,3058.58 v 0 c 103.84,185.58 329.45,402.21 633.54,549.96 v -0.02 C 2145.36,3460.79 1919.73,3244.15 1815.9,3058.58 m 657.93,561.56 -0.01,0.02 c 11.62,5.44 23.22,10.71 34.84,15.8 -11.62,-5.12 -23.22,-10.39 -34.83,-15.82"
         style="fill:#f0f0ee;fill-opacity:1;fill-rule:nonzero;stroke:none"
         id="path358" />
      <path
         d="m 2449.44,3608.52 v 0.02 c 4.04,1.96 8.13,3.93 12.2,5.87 4.07,1.94 8.12,3.86 12.18,5.75 l 0.01,-0.02 c -4.08,-1.9 -8.14,-3.82 -12.21,-5.76 -4.07,-1.94 -8.13,-3.89 -12.18,-5.86"
         style="fill:#405158;fill-opacity:1;fill-rule:nonzero;stroke:none"
         id="path360" />
      <path
         d="m 2155.04,2968.01 c 0,0.01 -0.01,0.02 -0.02,0.03 l 64.18,30.58 -64.16,-30.61"
         style="fill:#ffffff;fill-opacity:1;fill-rule:nonzero;stroke:none"
         id="path362" />
      <path
         d="m 1767.96,2783.61 c -32.08,67.33 -13.15,165.77 47.94,274.97 103.83,185.57 329.46,402.21 633.54,549.94 4.05,1.97 8.11,3.92 12.18,5.86 4.07,1.94 8.13,3.86 12.21,5.76 11.61,5.43 23.21,10.7 34.83,15.82 4.19,1.84 8.39,3.66 12.58,5.45 -15.69,-60.4 -45.29,-118.2 -113.7,-136.7 -36.9,-9.9 -83.29,-5.4 -110.6,-30.2 -12.89,-11.8 -20.9,-27 -26.7,-42.7 -25.49,-68.1 -15.8,-147.9 -4.49,-221.7 9.2,-59.5 21.3,-119.6 22.8,-178.4 l -69.35,-33.09 -64.18,-30.58 c -6.89,7.79 -13.18,15.98 -18.98,24.27 -16.49,23.6 -35.8,61.2 -71.6,64.4 -1.56,0.14 -3.11,0.21 -4.64,0.21 -24.9,0 -45.26,-17.79 -56.75,-33.71 -30.11,-42 -38.01,-92.3 -36.6,-145 l -198.49,-94.59"
         style="fill:#5d87cd;fill-opacity:1;fill-rule:nonzero;stroke:none"
         id="path364" />
      <path
         d="m 2468.54,3117.51 c -6.69,40.9 -10.49,82.5 1.7,119.3 3.71,11.1 9.71,22.3 21.61,27.5 4.92,2.18 10.39,3.12 16.1,3.12 12.4,0 25.93,-4.43 37.49,-10.32 17.01,-8.6 32.1,-20.3 49.91,-27.3 11.91,-4.73 24.73,-7.11 37.17,-7.11 12.51,0 24.65,2.4 35.13,7.21 45.8,20.9 42.5,75.5 36.7,116.8 -9.71,70.1 -26.5,141.2 -18.51,209.4 7.9,67.4 42.81,129 115.41,156.5 27.9,10.6 59.6,15.7 84.39,30.3 7.01,4.1 13.21,8.8 18.71,14.1 83.25,14.56 162.63,21.49 235.51,21.49 205.37,0 359.23,-54.95 403.89,-148.69 l -1075.21,-512.3"
         style="fill:#5d87cd;fill-opacity:1;fill-rule:nonzero;stroke:none"
         id="path366" />
      <path
         d="m 3301.59,3795.17 -0.85,0.1 c -1.97,0.46 -3.18,2.43 -2.72,4.4 l 6.54,27.7 c 0.46,1.97 2.43,3.2 4.4,2.72 1.97,-0.46 3.18,-2.43 2.72,-4.4 l -6.54,-27.7 c -0.39,-1.69 -1.9,-2.82 -3.55,-2.82"
         style="fill:#406fbf;fill-opacity:1;fill-rule:nonzero;stroke:none"
         id="path368" />
      <path
         d="m 3319.37,3786.29 c -0.98,0 -1.96,0.39 -2.68,1.16 -1.38,1.48 -1.29,3.8 0.19,5.18 l 15.57,14.5 c 1.49,1.37 3.8,1.28 5.18,-0.19 1.37,-1.48 1.29,-3.8 -0.19,-5.17 l -15.57,-14.5 -2.5,-0.98"
         style="fill:#406fbf;fill-opacity:1;fill-rule:nonzero;stroke:none"
         id="path370" />
      <path
         d="m 3281.7,3795.18 c -1.49,0 -2.88,0.91 -3.43,2.38 l -5.81,15.58 c -0.71,1.89 0.25,4 2.14,4.7 1.89,0.7 4.01,-0.25 4.71,-2.14 l 5.82,-15.57 c 0.7,-1.9 -0.26,-4 -2.15,-4.71 l -1.28,-0.24"
         style="fill:#406fbf;fill-opacity:1;fill-rule:nonzero;stroke:none"
         id="path372" />
      <path
         d="m 1725.95,2964.41 -1.58,0.36 -25.64,12.36 c -1.82,0.88 -2.59,3.07 -1.71,4.89 0.88,1.82 3.06,2.6 4.89,1.71 l 25.63,-12.37 c 1.83,-0.88 2.59,-3.06 1.71,-4.88 -0.63,-1.31 -1.94,-2.07 -3.3,-2.07"
         style="fill:#406fbf;fill-opacity:1;fill-rule:nonzero;stroke:none"
         id="path374" />
      <path
         d="m 1738.47,2979.86 c -1.26,0 -2.48,0.65 -3.16,1.81 l -10.79,18.33 c -1.03,1.74 -0.45,3.99 1.3,5.01 1.73,1.03 3.97,0.44 5.01,-1.3 l 10.79,-18.33 c 1.02,-1.75 0.44,-3.99 -1.3,-5.01 l -1.85,-0.51"
         style="fill:#406fbf;fill-opacity:1;fill-rule:nonzero;stroke:none"
         id="path376" />
      <path
         d="m 1705.19,2942.67 c -1.8,0 -3.36,1.32 -3.62,3.15 -0.29,2 1.11,3.85 3.11,4.14 l 16.46,2.32 c 2.01,0.28 3.85,-1.11 4.13,-3.11 0.29,-2 -1.1,-3.85 -3.11,-4.13 l -16.46,-2.33 -0.51,-0.04"
         style="fill:#406fbf;fill-opacity:1;fill-rule:nonzero;stroke:none"
         id="path378" />
      <path
         d="m 2679.3,3722.91 h -0.02 c -1.68,0.01 -3.04,1.39 -3.03,3.07 l 0.16,23.73 c 0.01,1.68 1.37,3.04 3.05,3.04 h 0.02 c 1.68,-0.02 3.04,-1.39 3.03,-3.07 l -0.16,-23.74 c -0.01,-1.67 -1.37,-3.03 -3.05,-3.03"
         style="fill:#406fbf;fill-opacity:1;fill-rule:nonzero;stroke:none"
         id="path380" />
      <path
         d="m 2695.41,3719 -1.71,0.53 c -1.4,0.95 -1.76,2.85 -0.81,4.24 l 9.96,14.68 c 0.94,1.39 2.83,1.77 4.24,0.82 1.4,-0.95 1.76,-2.85 0.81,-4.25 l -9.97,-14.68 c -0.59,-0.87 -1.54,-1.34 -2.52,-1.34"
         style="fill:#406fbf;fill-opacity:1;fill-rule:nonzero;stroke:none"
         id="path382" />
      <path
         d="m 2663.14,3719.22 c -0.99,0 -1.96,0.48 -2.55,1.37 l -7.63,11.57 c -0.93,1.41 -0.54,3.3 0.87,4.23 1.4,0.93 3.3,0.54 4.23,-0.87 l 7.63,-11.57 c 0.93,-1.4 0.54,-3.3 -0.87,-4.23 l -1.68,-0.5"
         style="fill:#406fbf;fill-opacity:1;fill-rule:nonzero;stroke:none"
         id="path384" />
      <path
         d="m 2123.72,3465.5 c -1.13,0 -2.24,0.51 -2.96,1.49 l -16.83,22.95 c -1.2,1.62 -0.85,3.91 0.78,5.11 1.63,1.2 3.92,0.84 5.11,-0.78 l 16.84,-22.96 c 1.2,-1.62 0.84,-3.91 -0.79,-5.11 l -2.15,-0.7"
         style="fill:#406fbf;fill-opacity:1;fill-rule:nonzero;stroke:none"
         id="path386" />
      <path
         d="m 2142,3473.27 c -1.95,0 -3.56,1.53 -3.65,3.5 l -0.92,21.26 c -0.09,2.02 1.48,3.72 3.49,3.81 2.16,0.02 3.73,-1.48 3.82,-3.49 l 0.92,-21.27 c 0.09,-2.02 -1.48,-3.72 -3.49,-3.81 H 2142"
         style="fill:#406fbf;fill-opacity:1;fill-rule:nonzero;stroke:none"
         id="path388" />
      <path
         d="m 2110.8,3450.37 -1.25,0.23 -15.62,5.67 c -1.9,0.69 -2.89,2.79 -2.19,4.69 0.68,1.89 2.77,2.88 4.69,2.18 l 15.62,-5.67 c 1.9,-0.69 2.88,-2.79 2.18,-4.68 -0.53,-1.49 -1.94,-2.42 -3.43,-2.42"
         style="fill:#406fbf;fill-opacity:1;fill-rule:nonzero;stroke:none"
         id="path390" />
      <path
         d="m 2949.75,3563.66 -0.9,0.11 c -1.96,0.5 -3.15,2.49 -2.66,4.44 l 6.93,27.61 c 0.49,1.97 2.49,3.14 4.43,2.66 1.97,-0.5 3.16,-2.48 2.66,-4.44 l -6.92,-27.6 c -0.41,-1.67 -1.91,-2.78 -3.54,-2.78"
         style="fill:#ffffff;fill-opacity:1;fill-rule:nonzero;stroke:none"
         id="path392" />
      <path
         d="m 2967.4,3554.54 c -0.99,0 -1.99,0.41 -2.71,1.2 -1.36,1.5 -1.24,3.82 0.26,5.17 l 15.77,14.28 c 1.5,1.35 3.81,1.24 5.17,-0.26 1.36,-1.5 1.24,-3.81 -0.26,-5.17 l -15.77,-14.28 -2.46,-0.94"
         style="fill:#ffffff;fill-opacity:1;fill-rule:nonzero;stroke:none"
         id="path394" />
      <path
         d="m 2929.86,3563.95 c -1.5,0 -2.91,0.93 -3.44,2.43 l -5.61,15.65 c -0.68,1.9 0.31,4 2.21,4.68 1.93,0.65 4,-0.31 4.69,-2.21 l 5.6,-15.65 c 0.68,-1.9 -0.31,-4 -2.21,-4.68 l -1.24,-0.22"
         style="fill:#ffffff;fill-opacity:1;fill-rule:nonzero;stroke:none"
         id="path396" />
      <path
         d="m 2063.35,3249.88 c -1.19,0 -2.34,0.58 -3.05,1.64 l -15.77,23.69 c -1.12,1.68 -0.67,3.95 1.02,5.07 1.68,1.12 3.95,0.66 5.07,-1.02 l 15.77,-23.69 c 1.12,-1.68 0.67,-3.95 -1.02,-5.07 l -2.02,-0.62"
         style="fill:#ffffff;fill-opacity:1;fill-rule:nonzero;stroke:none"
         id="path398" />
      <path
         d="m 2081.98,3256.82 h -0.01 c -2.02,0 -3.65,1.64 -3.65,3.66 l 0.05,21.29 c 0,2.01 1.64,3.64 3.66,3.64 h 0.01 c 2.02,0 3.65,-1.64 3.64,-3.66 l -0.05,-21.29 c 0,-2.01 -1.64,-3.64 -3.65,-3.64"
         style="fill:#ffffff;fill-opacity:1;fill-rule:nonzero;stroke:none"
         id="path400" />
      <path
         d="m 2049.76,3235.37 -1.41,0.28 -15.34,6.38 c -1.87,0.77 -2.75,2.91 -1.97,4.78 0.78,1.87 2.92,2.74 4.78,1.98 l 15.35,-6.38 c 1.86,-0.78 2.75,-2.92 1.97,-4.78 -0.59,-1.41 -1.95,-2.26 -3.38,-2.26"
         style="fill:#ffffff;fill-opacity:1;fill-rule:nonzero;stroke:none"
         id="path402" />
      <path
         d="m 1384.06,1214.77 c 0,-26.86 -21.77,-48.63 -48.62,-48.63 -26.86,0 -48.63,21.77 -48.63,48.63 0,26.85 21.77,48.62 48.63,48.62 26.85,0 48.62,-21.77 48.62,-48.62"
         style="fill:#406fbf;fill-opacity:1;fill-rule:nonzero;stroke:none"
         id="path404" />
      <g
         id="g406">
        <g
           id="g408"
           clip-path="url(#clipPath412)">
          <path
             d="m 1288.13,1226.04 h 94.6211 v 37.3516 H 1288.13 Z"
             style="fill:#3b69bb;fill-opacity:1;fill-rule:nonzero;stroke:none"
             id="path414" />
        </g>
      </g>
      <path
         d="m 1508.92,1059.09 c 0,-95.809 -77.67,-173.481 -173.48,-173.481 -95.82,0 -173.49,77.672 -173.49,173.481 0,95.81 77.67,173.48 173.49,173.48 95.81,0 173.48,-77.67 173.48,-173.48"
         style="fill:#406fbf;fill-opacity:1;fill-rule:nonzero;stroke:none"
         id="path416" />
      <path
         d="m 1521.94,190.488 h -373.01 c -18.58,0 -35.03,-12.008 -40.68,-29.707 l -15.18,-47.551 h 484.73 l -15.18,47.551 c -5.65,17.699 -22.1,29.707 -40.68,29.707"
         style="fill:#406fbf;fill-opacity:1;fill-rule:nonzero;stroke:none"
         id="path418" />
      <path
         d="m 1148.77,190.488 h 373.332 v 823.301 H 1148.77 Z"
         style="fill:#406fbf;fill-opacity:1;fill-rule:nonzero;stroke:none"
         id="path420" />
      <path
         d="M 1148.77,855.691 V 1013.79 H 1522.1 V 904.648 l -63.36,-8.308 v 61.121 c 0,10.68 -8.65,19.34 -19.33,19.34 -10.68,0 -19.34,-8.66 -19.34,-19.34 V 891.27 l -65.3,-8.559 v 74.75 c 0,10.68 -8.65,19.34 -19.33,19.34 -10.68,0 -19.34,-8.66 -19.34,-19.34 v -79.82 l -65.3,-8.571 v 88.391 c 0,10.68 -8.66,19.34 -19.33,19.34 -10.68,0 -19.34,-8.66 -19.34,-19.34 V 864 l -63.36,-8.309"
         style="fill:#3b69bb;fill-opacity:1;fill-rule:nonzero;stroke:none"
         id="path422" />
      <path
         d="m 1522.1,469.871 h 50.0078 v 326.91 H 1522.1 Z"
         style="fill:#406fbf;fill-opacity:1;fill-rule:nonzero;stroke:none"
         id="path424" />
      <path
         d="m 1522.1,469.871 h 50.0078 v 326.91 H 1522.1 Z"
         style="fill:#3b69bb;fill-opacity:1;fill-rule:nonzero;stroke:none"
         id="path426" />
      <path
         d="m 1612.18,487.68 v 0 291.289 c 13.34,0 24.15,-10.809 24.15,-24.149 V 511.828 c 0,-13.328 -10.81,-24.148 -24.15,-24.148"
         style="fill:#406fbf;fill-opacity:1;fill-rule:nonzero;stroke:none"
         id="path428" />
      <path
         d="m 1592.14,418.488 v 0 c -11.06,0 -20.03,8.981 -20.03,20.043 v 389.59 c 0,11.07 8.97,20.039 20.03,20.039 11.07,0 20.04,-8.969 20.04,-20.039 v -389.59 c 0,-11.062 -8.97,-20.043 -20.04,-20.043"
         style="fill:#406fbf;fill-opacity:1;fill-rule:nonzero;stroke:none"
         id="path430" />
      <path
         d="m 1101.32,571.609 h 47.4609 V 695.031 H 1101.32 Z"
         style="fill:#406fbf;fill-opacity:1;fill-rule:nonzero;stroke:none"
         id="path432" />
      <path
         d="m 1101.32,571.609 h 47.4609 V 695.031 H 1101.32 Z"
         style="fill:#3b69bb;fill-opacity:1;fill-rule:nonzero;stroke:none"
         id="path434" />
      <path
         d="m 1081.28,467.82 v 0 c 11.07,0 20.04,8.969 20.04,20.039 v 290.93 c 0,11.07 -8.97,20.043 -20.04,20.043 -11.07,0 -20.03,-8.973 -20.03,-20.043 v -290.93 c 0,-11.07 8.96,-20.039 20.03,-20.039"
         style="fill:#406fbf;fill-opacity:1;fill-rule:nonzero;stroke:none"
         id="path436" />
      <path
         d="M 1542.07,1073.87 H 1128.8 c -16.59,0 -30.04,-13.45 -30.04,-30.04 0,-16.59 13.45,-30.04 30.04,-30.04 h 413.27 c 16.59,0 30.04,13.45 30.04,30.04 0,16.59 -13.45,30.04 -30.04,30.04"
         style="fill:#406fbf;fill-opacity:1;fill-rule:nonzero;stroke:none"
         id="path438" />
      <path
         d="M 1542.07,1013.79 H 1128.8 c -16.59,0 -30.04,13.45 -30.04,30.04 0,16.59 13.45,30.04 30.04,30.04 h 413.27 c 16.59,0 30.04,-13.45 30.04,-30.04 0,-16.59 -13.45,-30.04 -30.04,-30.04"
         style="fill:#6d97d6;fill-opacity:1;fill-rule:nonzero;stroke:none"
         id="path440" />
      <path
         d="m 1335.44,227.488 c -10.68,0 -19.34,8.653 -19.34,19.34 v 630.813 l 38.67,5.07 V 246.828 c 0,-10.687 -8.65,-19.34 -19.33,-19.34"
         style="fill:#3b69bb;fill-opacity:1;fill-rule:nonzero;stroke:none"
         id="path442" />
      <path
         d="m 1316.1,877.641 v 79.82 c 0,10.68 8.66,19.34 19.34,19.34 10.68,0 19.33,-8.66 19.33,-19.34 v -74.75 l -38.67,-5.07"
         style="fill:#3563b8;fill-opacity:1;fill-rule:nonzero;stroke:none"
         id="path444" />
      <path
         d="m 1439.41,227.488 c -10.68,0 -19.34,8.653 -19.34,19.34 V 891.27 l 38.67,5.07 V 246.828 c 0,-10.687 -8.65,-19.34 -19.33,-19.34"
         style="fill:#3b69bb;fill-opacity:1;fill-rule:nonzero;stroke:none"
         id="path446" />
      <path
         d="m 1420.07,891.27 v 66.191 c 0,10.68 8.66,19.34 19.34,19.34 10.68,0 19.33,-8.66 19.33,-19.34 V 896.34 l -38.67,-5.07"
         style="fill:#3563b8;fill-opacity:1;fill-rule:nonzero;stroke:none"
         id="path448" />
      <path
         d="m 1231.47,227.488 c -10.68,0 -19.34,8.653 -19.34,19.34 V 864 l 38.67,5.07 V 246.828 c 0,-10.687 -8.66,-19.34 -19.33,-19.34"
         style="fill:#3b69bb;fill-opacity:1;fill-rule:nonzero;stroke:none"
         id="path450" />
      <path
         d="m 1212.13,864 v 93.461 c 0,10.68 8.66,19.34 19.34,19.34 10.67,0 19.33,-8.66 19.33,-19.34 V 869.07 L 1212.13,864"
         style="fill:#3563b8;fill-opacity:1;fill-rule:nonzero;stroke:none"
         id="path452" />
      <path
         d="m 2557.93,120.891 c -3.63,0 -7.29,0.031 -10.95,0.121 l 21.6,41.797 c -19.19,0.601 -41,1.5 -66.3,3.5 -12.34,0.941 -26.39,1.41 -41.22,1.41 -5.73,0 -11.57,-0.071 -17.48,-0.207 l -22.2,-42.903 v 0 c -29.5,1.102 -55.3,2.5 -75.7,5.2 -2.8,0.402 -6.6,1.101 -10.9,2 l 15,29 c -13.2,-1.797 -25.1,-3.797 -35,-6 l -7.8,-15 v 0 c -9.9,3.703 -15.8,7.601 -9.6,10 4.6,1.8 10.5,3.402 17.4,5 9.9,2.203 21.8,4.203 35,6 28.1,3.703 61.9,6.101 93.8,6.703 5.91,0.136 11.75,0.207 17.48,0.207 14.83,0 28.88,-0.469 41.22,-1.41 25.3,-2 47.11,-2.899 66.3,-3.5 9.1,-0.297 17.5,-0.5 25.5,-0.7 24.7,-0.597 44.6,-1 62.2,-3.199 18.3,-2.199 34.2,-6.5 50.5,-14.801 17.9,-9.097 -14.9,-16.8 -68.8,-20.5 l 18.3,35.301 c -17.6,2.199 -37.5,2.602 -62.2,3.199 l -21.3,-41.097 v 0 c -4.86,-0.063 -9.83,-0.121 -14.85,-0.121"
         style="fill:#9ebde7;fill-opacity:1;fill-rule:nonzero;stroke:none"
         id="path454" />
      <path
         d="m 2326.52,82.5 c -0.58,0 -1.16,0 -1.74,0.0117 -5.3,0 -10.5,0.0977 -15.4,0.1992 l 6.9,13.3008 c -12.4,-0.3008 -23.7,-0.9023 -32.8,-1.7031 l -5,-9.7969 v 0 c -11.5,1.2969 -18.3,3 -17.5,4.8985 0.8,1.8984 9.4,3.6992 22.5,4.8984 9.1,0.8008 20.4,1.4023 32.8,1.7031 4.6,0.0977 9.4,0.0977 14.3,0.0977 36.8,0 49.5,-3.0977 47.9,-6.8985 -1.57,-3.7421 -16.42,-6.7109 -51.96,-6.7109"
         style="fill:#9ebde7;fill-opacity:1;fill-rule:nonzero;stroke:none"
         id="path456" />
      <path
         d="m 2546.98,121.012 v 0 c -14.7,0 -29.7,0.297 -44.7,0.898 -28.7,1.102 -56.1,1.899 -80.9,2.699 l 22.2,42.903 c 5.91,0.136 11.75,0.207 17.48,0.207 14.83,0 28.88,-0.469 41.22,-1.41 25.3,-2 47.11,-2.899 66.3,-3.5 l -21.6,-41.797"
         style="fill:#c8daf2;fill-opacity:1;fill-rule:nonzero;stroke:none"
         id="path458" />
      <path
         d="m 2572.78,121.012 21.3,41.097 c 24.7,-0.597 44.6,-1 62.2,-3.199 l -18.3,-35.301 v 0 c -19.5,-1.398 -41.7,-2.3 -65.2,-2.597"
         style="fill:#c8daf2;fill-opacity:1;fill-rule:nonzero;stroke:none"
         id="path460" />
      <path
         d="m 2309.38,82.7109 v 0 c -12.1,0.3008 -22.7,0.8985 -30.9,1.8008 l 5,9.7969 c 9.1,0.8008 20.4,1.4023 32.8,1.7031 l -6.9,-13.3008"
         style="fill:#c8daf2;fill-opacity:1;fill-rule:nonzero;stroke:none"
         id="path462" />
      <path
         d="m 2334.78,131.809 v 0 c -8.8,2 -19.6,5 -27.8,8 l 7.8,15 c 9.9,2.203 21.8,4.203 35,6 l -15,-29"
         style="fill:#c8daf2;fill-opacity:1;fill-rule:nonzero;stroke:none"
         id="path464" />
      <path
         d="m 3503.86,72.5703 c -5.09,0 -10.35,0.0391 -15.8,0.1406 1.95,-0.0312 3.89,-0.0507 5.8,-0.0625 l 45.03,87.1016 c 30.51,0.891 62.4,1.379 95.34,1.41 20.98,0.02 43.95,0.66 68.25,1.352 l -21.5,-41.692 c -41.83,-1.718 -68.34,-4.859 -62.03,-11.019 18.11,-17.6408 -9.79,-37.2307 -115.09,-37.2307 m -54.4,1.4805 c -18.76,0.9492 -39.22,2.3711 -61.5,4.3398 0.59,-0.0508 1.17,-0.1015 1.76,-0.1484 l 39.44,76.2578 c 14.69,1.012 29.96,1.922 45.75,2.719 L 3432.4,75.0313 c 5.83,-0.3711 11.52,-0.6993 17.06,-0.9805 M 3330.32,84.25 c -1.31,0.1484 -2.62,0.3008 -3.94,0.4609 -173.58,20.0981 -118.45,48.8201 41.79,64.7301 -1.5,-0.16 -3,-0.312 -4.48,-0.472 L 3330.32,84.25 m 356.89,36.809 c 26.96,1.07 59.44,1.531 93.38,1.781 -33.91,-0.328 -66.45,-0.789 -93.38,-1.781 m 107.66,1.91 21.26,40.98 c -8.41,0.153 -16.79,0.211 -25.1,0.211 -28.02,0 -55.33,-0.738 -81.24,-1.441 26.24,0.742 53.91,1.461 82.23,1.461 66.74,0 137.06,-4.02 200.41,-21.348 68.54,-18.75 -70.03,-18.742 -197.56,-19.863"
         style="fill:#9ebde7;fill-opacity:1;fill-rule:nonzero;stroke:none"
         id="path466" />
      <path
         d="m 3680.97,120.801 0.01,0.019 c 2.05,0.078 4.11,0.16 6.23,0.239 -2.11,-0.079 -4.2,-0.168 -6.24,-0.258 m 99.62,2.039 c 4.73,0.051 9.51,0.09 14.28,0.129 l -0.02,-0.028 c -4.77,-0.031 -9.53,-0.062 -14.26,-0.101 m -78.11,39.672 0.01,0.008 c 2.42,0.062 4.86,0.128 7.3,0.199 -2.45,-0.071 -4.88,-0.137 -7.31,-0.207"
         style="fill:#f6f6f4;fill-opacity:1;fill-rule:nonzero;stroke:none"
         id="path468" />
      <path
         d="m 3680.98,120.82 21.5,41.692 c 2.43,0.07 4.86,0.136 7.31,0.207 25.91,0.703 53.22,1.441 81.24,1.441 8.31,0 16.69,-0.058 25.1,-0.211 l -21.26,-40.98 c -4.77,-0.039 -9.55,-0.078 -14.28,-0.129 -33.94,-0.25 -66.42,-0.711 -93.38,-1.781 -2.12,-0.079 -4.18,-0.161 -6.23,-0.239"
         style="fill:#c8daf2;fill-opacity:1;fill-rule:nonzero;stroke:none"
         id="path470" />
      <path
         d="m 3488.06,72.7109 c -11.98,0.168 -24.84,0.6289 -38.6,1.3399 13.78,-0.6992 26.63,-1.1406 38.6,-1.3399 m -13.15,84.5081 0.04,0.07 c 20.45,0.953 41.85,1.902 63.96,2.5 l -0.02,-0.039 c -22.11,-0.641 -43.48,-1.5 -63.98,-2.531"
         style="fill:#f6f6f4;fill-opacity:1;fill-rule:nonzero;stroke:none"
         id="path472" />
      <path
         d="m 3493.86,72.6484 c -1.91,0.0118 -3.85,0.0313 -5.8,0.0625 -11.97,0.1993 -24.82,0.6407 -38.6,1.3399 -5.54,0.2812 -11.23,0.6094 -17.06,0.9805 l 42.51,82.1877 c 20.5,1.031 41.87,1.89 63.98,2.531 l -45.03,-87.1016"
         style="fill:#c8daf2;fill-opacity:1;fill-rule:nonzero;stroke:none"
         id="path474" />
      <path
         d="m 3387.96,78.3906 c -18.03,1.5196 -37.18,3.4883 -57.68,5.7891 l 0.04,0.0703 c 20.43,-2.3281 39.63,-4.2695 57.64,-5.8594 m -19.79,71.0504 c 18.95,1.93 39.32,3.571 61.01,5.118 l -0.02,-0.059 c -21.65,-1.48 -42.07,-3.191 -60.99,-5.059"
         style="fill:#f6f6f4;fill-opacity:1;fill-rule:nonzero;stroke:none"
         id="path476" />
      <path
         d="m 3389.72,78.2422 c -0.59,0.0469 -1.17,0.0976 -1.76,0.1484 -18.01,1.5899 -37.21,3.5313 -57.64,5.8594 l 33.37,64.719 c 1.48,0.16 2.98,0.312 4.48,0.472 18.92,1.868 39.34,3.579 60.99,5.059 l -39.44,-76.2578"
         style="fill:#c8daf2;fill-opacity:1;fill-rule:nonzero;stroke:none"
         id="path478" />
    </g>
  </g>
</svg>
